<?xml version="1.0" standalone="no"?>
<!DOCTYPE svg PUBLIC "-//W3C//DTD SVG 20010904//EN"
 "http://www.w3.org/TR/2001/REC-SVG-20010904/DTD/svg10.dtd">
<svg version="1.0" xmlns="http://www.w3.org/2000/svg"
 width="7500.000000pt" height="7500.000000pt" viewBox="0 0 7500.000000 7500.000000"
 preserveAspectRatio="xMidYMid meet">
<metadata>
Created by potrace 1.16, written by Peter Selinger 2001-2019
</metadata>
<g transform="translate(0.000000,7500.000000) scale(0.100000,-0.100000)"
fill="#000000" stroke="none">
<path d="M32680 68859 c-14 -16 -30 -27 -37 -24 -6 2 -40 -28 -76 -66 -35 -39
-70 -71 -78 -73 -18 -2 -449 -428 -449 -443 0 -6 -36 -47 -80 -90 -44 -43 -80
-83 -80 -88 0 -6 -25 -35 -55 -65 -30 -29 -53 -55 -51 -57 1 -2 -15 -22 -36
-44 -22 -23 -37 -43 -34 -46 3 -3 -9 -17 -25 -31 -29 -24 -67 -75 -97 -128 -7
-13 -24 -32 -37 -42 -14 -11 -25 -24 -25 -29 0 -5 -11 -20 -25 -33 -14 -13
-25 -29 -25 -35 0 -6 -11 -22 -25 -35 -14 -13 -25 -29 -25 -37 0 -7 -4 -13 -8
-13 -4 0 -23 -24 -41 -54 -18 -30 -41 -62 -52 -72 -10 -9 -19 -21 -19 -26 0
-8 -36 -64 -50 -78 -13 -13 -50 -70 -50 -77 0 -5 -9 -16 -20 -26 -11 -9 -20
-24 -20 -32 0 -8 -4 -15 -10 -15 -5 0 -18 -19 -30 -42 -11 -24 -33 -63 -49
-88 -17 -25 -38 -61 -47 -80 -10 -19 -21 -37 -25 -40 -3 -3 -19 -30 -35 -60
-16 -30 -34 -60 -40 -67 -6 -6 -26 -42 -44 -80 -19 -37 -37 -70 -41 -73 -4 -3
-48 -90 -99 -195 -50 -104 -112 -231 -136 -281 -24 -50 -44 -95 -44 -99 0 -4
-11 -31 -24 -59 -42 -91 -56 -124 -56 -135 0 -6 -9 -26 -20 -46 -11 -20 -20
-42 -20 -50 0 -9 -4 -23 -9 -33 -22 -41 -101 -260 -131 -362 -22 -72 -29 -94
-49 -142 -5 -13 -12 -34 -15 -48 -13 -64 -32 -129 -39 -136 -4 -4 -7 -20 -7
-35 0 -15 -4 -30 -9 -33 -4 -3 -11 -22 -14 -43 -4 -21 -14 -63 -22 -93 -9 -30
-20 -75 -26 -100 -5 -25 -14 -61 -18 -80 -22 -93 -88 -432 -94 -480 -1 -15 -8
-24 -16 -22 -11 2 -12 0 -3 -10 14 -18 3 -98 -15 -105 -10 -4 -11 -9 -3 -18
11 -14 3 -115 -9 -115 -4 0 -5 -18 -3 -40 5 -48 -7 -118 -16 -103 -4 6 -7 -32
-7 -85 0 -55 -4 -97 -10 -99 -6 -2 -9 -43 -7 -106 3 -85 1 -107 -12 -120 -16
-16 -21 -39 -10 -49 7 -8 5 -855 -3 -891 -4 -19 -1 -32 11 -40 13 -10 15 -30
13 -120 -1 -60 2 -108 7 -110 6 -2 10 -46 10 -98 1 -65 5 -98 15 -108 9 -10
12 -33 9 -73 -2 -32 -1 -58 3 -58 11 0 20 -92 9 -105 -7 -9 -7 -14 3 -18 8 -3
18 -41 26 -98 7 -52 17 -110 21 -129 26 -109 32 -154 21 -158 -15 -5 -14 -22
2 -22 9 0 20 -31 31 -87 10 -49 22 -106 28 -128 5 -22 12 -53 14 -70 3 -16 9
-39 14 -50 5 -11 11 -36 14 -55 4 -19 16 -66 27 -105 11 -38 27 -95 36 -125 8
-30 19 -71 25 -90 5 -19 13 -44 18 -55 5 -11 38 -112 75 -224 36 -113 70 -211
76 -217 6 -7 11 -29 12 -48 1 -20 5 -36 9 -36 7 0 38 -58 38 -73 0 -9 15 -44
56 -133 13 -28 24 -54 24 -58 0 -4 15 -39 33 -79 19 -40 40 -88 48 -107 22
-58 277 -558 290 -570 3 -3 13 -21 22 -40 10 -19 23 -44 30 -54 33 -54 74
-123 80 -136 4 -8 21 -35 37 -60 17 -25 39 -64 50 -87 12 -24 25 -43 30 -43 5
0 12 -11 16 -24 3 -14 12 -27 20 -30 8 -3 14 -15 14 -26 0 -11 4 -20 8 -20 11
0 62 -78 62 -96 0 -8 7 -14 15 -14 8 0 17 -11 21 -25 3 -14 10 -25 15 -25 4 0
25 -26 46 -57 40 -61 51 -76 96 -128 15 -18 27 -37 27 -42 0 -5 11 -20 25 -33
14 -13 25 -28 25 -33 0 -5 15 -26 33 -47 17 -20 39 -46 47 -56 92 -117 122
-155 165 -204 28 -31 75 -85 105 -121 105 -123 597 -618 705 -709 28 -23 55
-47 60 -54 6 -7 20 -19 33 -28 12 -8 42 -34 67 -57 24 -22 47 -41 51 -41 4 0
28 -19 53 -42 26 -24 62 -54 80 -68 19 -14 51 -38 71 -55 21 -16 50 -41 66
-53 16 -13 39 -29 52 -34 12 -6 22 -15 22 -20 0 -4 16 -16 35 -25 19 -9 35
-23 35 -30 0 -7 9 -13 19 -13 11 0 28 -11 39 -25 11 -14 25 -25 31 -25 6 0 38
-19 71 -42 33 -24 68 -48 78 -53 9 -6 69 -45 133 -88 64 -42 119 -77 123 -77
4 0 12 -5 19 -10 30 -26 241 -147 400 -229 53 -28 115 -62 137 -76 22 -14 44
-25 49 -25 6 0 14 -6 18 -12 4 -7 15 -13 23 -13 8 0 14 -5 13 -11 -1 -7 6 -10
17 -7 14 4 20 0 20 -11 0 -9 6 -13 14 -10 7 3 36 -4 62 -16 51 -22 64 -29 121
-61 18 -10 40 -19 48 -19 8 0 15 -7 15 -16 0 -11 5 -14 17 -10 17 7 103 -24
103 -36 0 -5 9 -8 20 -8 11 0 35 -9 55 -20 20 -11 44 -20 53 -20 10 0 27 -7
38 -15 10 -8 26 -15 35 -15 8 0 33 -9 55 -19 22 -11 54 -23 70 -27 16 -4 34
-10 39 -14 6 -4 46 -19 90 -34 44 -15 88 -31 97 -36 10 -6 25 -10 33 -10 8 0
23 -4 33 -10 9 -5 64 -23 122 -40 58 -17 125 -38 149 -46 25 -8 53 -14 63 -14
10 0 18 -4 18 -10 0 -5 16 -10 36 -10 25 0 35 -4 31 -13 -3 -9 6 -11 36 -8 34
3 39 1 34 -13 -4 -9 -2 -16 3 -16 6 0 10 5 10 10 0 14 37 12 51 -3 7 -7 26
-11 46 -9 24 3 33 0 33 -10 0 -10 10 -13 35 -10 25 3 35 0 35 -10 0 -10 10
-13 35 -10 28 3 35 1 35 -13 0 -14 3 -15 15 -5 20 16 75 3 76 -18 0 -11 2 -12
6 -4 6 16 72 16 79 -1 3 -8 17 -11 41 -9 26 3 40 0 49 -12 7 -10 14 -13 17 -9
3 5 43 3 89 -4 46 -7 115 -17 153 -23 39 -6 106 -15 150 -20 44 -5 136 -16
205 -24 250 -30 484 -41 855 -39 204 1 404 4 445 7 41 2 120 7 175 11 55 3
118 8 140 10 74 9 359 47 425 56 36 6 85 12 110 15 25 3 54 9 65 13 24 10 220
41 258 41 28 0 37 15 15 23 -7 2 8 2 35 -1 31 -3 47 -1 47 7 0 6 18 11 46 11
27 0 43 4 39 10 -4 6 11 10 37 11 l43 1 -35 8 c-24 6 -40 4 -54 -6 -23 -16
-50 -19 -41 -4 10 15 -6 12 -26 -6 -10 -9 -24 -14 -31 -11 -8 4 -5 8 10 12 26
9 27 13 4 42 l-17 23 -32 -30 c-18 -17 -37 -30 -44 -30 -6 0 -9 -7 -5 -15 3
-9 0 -15 -9 -15 -18 0 -20 26 -2 33 9 4 8 8 -3 16 -8 5 -11 14 -6 18 5 4 11 2
13 -4 6 -17 13 -16 38 3 17 13 18 16 5 24 -10 7 -11 10 -2 10 6 0 12 6 12 14
0 17 -53 32 -58 17 -2 -6 -12 -11 -22 -11 -12 0 -20 10 -24 35 -9 44 -22 52
-45 26 -10 -11 -21 -18 -24 -15 -8 8 13 64 24 64 5 0 9 9 9 19 0 11 4 21 9 23
12 4 -9 88 -26 106 -6 6 -25 12 -42 12 -25 0 -31 -4 -31 -21 0 -16 5 -20 28
-17 25 3 27 1 24 -31 -1 -19 2 -37 7 -41 12 -7 3 -50 -10 -50 -5 0 -9 9 -9 20
0 11 -7 20 -15 20 -9 0 -23 16 -32 35 -9 19 -23 35 -30 35 -18 0 -16 38 2 56
17 17 20 64 5 64 -5 0 -10 -4 -10 -10 0 -5 -7 -10 -15 -10 -8 0 -15 7 -15 15
0 9 -8 28 -17 42 -10 15 -18 31 -19 37 0 6 -2 17 -2 24 -1 6 -8 12 -15 12 -7
0 -18 9 -25 20 -7 11 -19 20 -27 20 -8 0 -15 9 -15 19 0 11 -3 26 -6 34 -4 11
1 13 21 9 33 -6 42 7 37 53 -3 27 -9 35 -24 35 -10 0 -17 -4 -14 -9 9 -14 -4
-41 -20 -41 -8 0 -14 8 -14 18 0 22 -22 72 -32 72 -5 0 -8 9 -8 21 0 14 -5 19
-14 16 -18 -7 -56 66 -56 109 0 24 -5 34 -15 34 -9 0 -15 9 -15 25 0 16 6 25
15 25 12 0 15 14 15 69 0 49 -5 74 -15 85 -8 8 -15 19 -15 25 0 6 -9 11 -20
11 -13 0 -20 7 -20 20 0 13 7 20 20 20 14 0 20 6 19 23 -1 16 -2 18 -6 5 -6
-22 -23 -24 -23 -2 0 8 -5 12 -11 9 -6 -4 -16 1 -23 10 -10 14 -12 2 -8 -70 4
-72 2 -87 -9 -83 -8 3 -13 12 -11 22 2 9 -2 16 -8 16 -5 0 -10 20 -10 45 0 32
-4 45 -14 45 -18 0 -49 48 -42 66 3 8 -3 23 -14 34 -11 11 -20 28 -20 39 0 11
-9 21 -21 24 -18 5 -20 11 -14 36 4 20 3 31 -4 31 -6 0 -11 7 -11 15 0 8 -4
15 -10 15 -5 0 -10 9 -10 20 0 11 4 20 10 20 5 0 13 15 18 33 l9 32 11 -25 c6
-14 11 -19 11 -12 1 7 -3 20 -8 30 -5 9 -13 28 -19 42 -5 14 -18 43 -28 65
-10 22 -17 44 -16 48 1 5 -7 6 -18 2 -16 -5 -20 -2 -20 14 0 12 -4 21 -10 21
-5 0 -10 -20 -10 -45 0 -39 3 -45 21 -45 11 0 26 -6 33 -13 13 -12 23 -147 11
-147 -19 0 -61 73 -51 88 3 6 -3 13 -14 17 -11 3 -20 13 -20 21 0 8 -4 14 -10
14 -5 0 -10 16 -10 35 0 19 -4 35 -10 35 -5 0 -10 7 -10 15 0 9 -7 18 -15 21
-8 4 -15 15 -15 25 0 10 -4 19 -9 19 -4 0 -12 24 -17 53 -6 36 -14 52 -24 52
-28 0 -40 23 -40 74 0 46 -2 51 -25 57 -22 5 -25 12 -25 50 0 24 -4 44 -10 44
-5 0 -10 11 -10 25 0 18 -7 26 -25 31 -16 4 -25 13 -25 25 0 10 -9 28 -20 39
-11 11 -20 33 -20 50 0 23 4 30 20 30 11 0 20 7 20 15 0 8 -9 15 -20 15 -11 0
-20 -7 -20 -15 0 -10 -10 -15 -30 -15 -31 0 -41 16 -15 26 17 7 21 44 5 44 -5
0 -10 9 -10 21 0 11 -4 17 -10 14 -5 -3 -10 3 -10 14 0 12 7 21 15 21 8 0 15
6 15 13 0 20 -35 57 -54 57 -9 0 -16 5 -16 10 0 6 -6 10 -13 10 -16 0 -57 53
-57 75 0 8 -4 15 -9 15 -15 0 -25 61 -11 70 22 13 31 85 15 117 -14 26 -15 26
-15 6 0 -13 5 -23 10 -23 6 0 10 -7 10 -15 0 -21 -23 -19 -40 5 -9 13 -21 18
-33 14 -15 -5 -18 -2 -13 13 4 12 -1 24 -14 33 -11 8 -20 25 -20 37 0 13 -4
23 -10 23 -5 0 -10 8 -10 19 0 10 -7 24 -15 31 -27 22 -18 40 20 40 19 0 35 5
35 10 0 6 -9 10 -20 10 -11 0 -20 4 -20 9 0 5 -11 12 -25 15 -14 4 -25 11 -25
16 0 6 -9 10 -20 10 -15 0 -20 7 -20 25 0 16 -6 25 -15 25 -11 0 -15 11 -15
40 0 27 -4 39 -12 38 -8 -2 -14 11 -16 34 -3 35 -1 37 29 40 32 3 55 28 26 28
-9 0 -19 9 -22 20 -3 11 -11 20 -16 20 -13 0 -11 44 4 59 9 11 7 10 -10 0 -20
-12 -23 -22 -23 -71 0 -54 -2 -58 -23 -58 -22 0 -24 4 -23 47 1 29 -4 48 -11
50 -22 8 -15 43 7 43 11 0 20 7 20 15 0 8 -9 15 -20 15 -11 0 -20 -6 -20 -14
0 -16 -22 -27 -37 -18 -5 4 -10 25 -10 47 -1 22 -6 41 -12 43 -6 2 -11 8 -11
14 0 13 -26 38 -39 38 -19 0 -12 30 7 31 10 0 12 3 5 6 -7 2 -13 9 -13 15 0 5
-7 16 -15 24 -8 9 -15 25 -15 36 0 11 -10 30 -22 41 -16 13 -19 21 -10 24 17
6 15 23 -3 23 -8 0 -15 7 -15 15 0 8 -4 15 -10 15 -5 0 -10 9 -10 20 0 11 -4
20 -10 20 -5 0 -10 20 -10 45 0 38 -3 45 -20 45 -11 0 -20 6 -20 14 0 8 -11
17 -25 20 -24 6 -36 36 -15 36 6 0 10 11 10 25 0 16 -6 25 -15 25 -8 0 -15 8
-15 18 0 10 -9 24 -20 32 -12 8 -20 26 -20 42 0 17 -8 33 -20 40 -11 7 -20 20
-20 28 0 8 -16 25 -35 38 -40 25 -46 52 -13 52 17 0 19 3 10 12 -14 14 -16 78
-2 78 6 0 10 -4 10 -10 0 -5 7 -10 15 -10 18 0 27 34 23 86 -2 30 -7 39 -23
41 -16 1 -16 1 -2 -3 22 -7 25 -74 2 -74 -8 0 -15 7 -15 16 0 15 -23 44 -34
44 -3 0 -6 -25 -6 -56 0 -52 -1 -54 -17 -39 -9 9 -16 30 -16 46 0 21 -5 29
-19 29 -16 0 -18 9 -18 70 0 63 -2 70 -20 70 -16 0 -20 7 -20 35 0 19 5 35 10
35 6 0 10 9 10 20 0 11 -5 20 -11 20 -6 0 -17 7 -25 15 -9 8 -31 15 -50 15
-31 0 -34 2 -34 30 0 20 5 30 15 30 8 0 15 4 15 9 0 21 -13 41 -27 41 -14 0
-63 43 -63 56 0 4 10 16 23 27 15 13 18 21 9 24 -7 3 -19 11 -26 19 -8 8 -24
14 -35 14 -14 0 -21 6 -21 20 0 11 -7 20 -16 20 -11 0 -14 6 -8 23 3 12 11 24
15 25 15 6 10 39 -6 46 -8 3 -15 15 -15 26 0 13 -7 20 -20 20 -11 0 -20 5 -20
10 0 6 9 10 20 10 25 0 26 18 3 27 -10 4 -30 19 -45 35 -14 15 -31 28 -37 28
-21 0 -32 37 -19 66 10 22 10 28 0 32 -6 2 -12 12 -12 23 0 14 -7 19 -25 19
-29 0 -35 32 -10 57 19 19 15 37 -11 42 -10 2 -26 12 -35 22 -9 11 -21 19 -28
19 -7 0 -11 21 -11 55 0 30 -4 55 -8 55 -5 0 -19 8 -30 19 -23 19 -30 51 -12
51 6 0 10 7 10 15 0 8 -4 15 -10 15 -5 0 -10 9 -10 20 0 15 -7 20 -25 20 -14
0 -25 5 -25 10 0 6 -9 10 -20 10 -15 0 -20 7 -20 25 0 14 5 25 10 25 22 0 9
40 -15 46 -16 4 -25 13 -25 25 0 10 -4 19 -10 19 -14 0 -12 48 2 52 8 3 4 13
-13 29 -13 14 -30 24 -36 22 -17 -6 -53 33 -53 56 0 11 6 22 13 25 10 5 10 7
0 12 -7 3 -13 21 -13 39 0 27 -5 34 -25 39 -24 6 -36 26 -15 26 6 0 10 14 10
30 0 41 -39 80 -80 80 -35 0 -40 19 -10 40 29 21 25 48 -7 55 -43 9 -58 20
-61 43 -2 15 4 25 22 34 14 6 26 15 26 19 0 19 -13 39 -26 39 -8 0 -14 5 -14
11 0 8 -12 10 -35 6 -30 -5 -35 -3 -35 14 0 10 -4 19 -10 19 -13 0 -13 33 -1
46 13 13 1 64 -15 64 -8 0 -23 8 -34 17 -24 21 -28 83 -5 83 8 0 15 5 15 10 0
10 -14 14 -37 11 -7 -1 -13 3 -13 10 0 7 -10 9 -29 6 -25 -5 -28 -4 -23 19 5
29 -13 54 -39 54 -14 0 -19 7 -19 25 0 14 5 25 10 25 6 0 10 9 10 20 0 11 -4
20 -10 20 -5 0 -10 7 -10 15 0 8 5 15 10 15 18 0 10 31 -15 56 -14 14 -25 31
-25 39 0 8 -4 15 -10 15 -5 0 -10 18 -10 41 0 39 -17 69 -39 69 -6 0 -11 9
-11 19 0 11 -3 26 -6 35 -4 12 0 16 15 16 12 0 21 5 21 10 0 6 -5 10 -11 10
-6 0 -9 7 -6 14 4 10 1 13 -9 9 -8 -3 -14 1 -14 11 0 10 -9 16 -25 16 -20 0
-25 5 -25 25 0 14 5 25 10 25 15 0 12 49 -4 66 -22 22 -26 17 -26 -33 -1 -44
-2 -47 -15 -29 -8 11 -15 35 -15 53 0 23 -5 33 -15 33 -8 0 -15 6 -15 14 0 26
12 46 27 46 23 0 9 25 -15 28 -12 2 -22 10 -22 18 0 20 -20 39 -48 48 -12 4
-22 12 -22 17 0 5 -11 9 -25 9 -14 0 -25 -4 -25 -10 0 -5 -4 -10 -10 -10 -5 0
-10 9 -10 21 0 16 4 19 20 14 18 -6 20 -2 20 34 0 23 -4 41 -10 41 -5 0 -10
-4 -10 -10 0 -5 -4 -10 -10 -10 -5 0 -10 16 -10 36 0 36 0 36 40 32 28 -2 40
0 40 9 0 7 -7 13 -15 13 -11 0 -13 7 -9 28 3 15 -1 40 -10 57 -14 27 -16 28
-16 8 0 -13 5 -23 10 -23 6 0 10 -11 10 -25 0 -20 -5 -25 -25 -25 -20 0 -25 5
-25 25 0 18 -5 25 -19 25 -11 0 -23 9 -26 20 -3 11 -11 20 -16 20 -5 0 -9 11
-9 25 0 14 -4 25 -10 25 -5 0 -10 12 -10 26 0 23 -3 26 -25 22 -21 -4 -25 -1
-25 18 0 13 4 24 9 24 5 0 9 36 9 80 0 60 -3 80 -13 80 -7 0 -16 -6 -18 -12
-3 -7 -6 -1 -6 15 -1 15 4 27 11 27 9 0 9 3 1 11 -12 12 -53 3 -53 -12 0 -5 5
-9 10 -9 6 0 10 -9 10 -20 0 -11 -3 -20 -7 -20 -17 1 -43 28 -43 44 0 10 -6
24 -12 31 -52 58 -51 67 10 64 36 -3 47 0 47 11 0 10 -9 14 -28 12 -33 -3 -68
25 -47 38 20 13 -24 50 -61 50 -16 0 -28 4 -24 9 3 5 1 12 -4 15 -4 3 -11 19
-14 36 -4 16 -13 30 -21 30 -11 0 -36 46 -36 66 0 2 20 4 45 4 25 0 45 5 45
10 0 6 -7 10 -16 10 -8 0 -21 6 -28 13 -8 6 -23 18 -34 26 -15 10 -23 30 -28
68 -7 57 -24 73 -24 23 0 -16 -4 -30 -10 -30 -5 0 -10 18 -10 40 0 34 -4 41
-25 46 -20 5 -25 12 -25 36 0 29 1 30 35 25 27 -4 35 -2 35 9 0 11 -6 13 -20
9 -19 -6 -30 10 -11 17 4 2 5 12 0 23 -7 19 -8 19 -8 -2 -1 -33 -21 -28 -28 7
-5 30 -20 39 -69 42 -18 2 -22 9 -22 42 -1 22 -6 42 -11 44 -6 2 -11 12 -11
23 0 14 -7 19 -25 19 -20 0 -25 5 -25 25 0 23 4 25 45 25 25 0 45 5 45 10 0 6
-9 10 -20 10 -11 0 -20 4 -20 9 0 5 -9 12 -19 16 -11 3 -23 15 -26 26 -4 10
-15 19 -26 19 -29 0 -50 25 -51 60 -1 16 -5 30 -10 30 -4 0 -8 7 -8 15 0 8 -7
15 -15 15 -8 0 -15 5 -15 10 0 6 -9 10 -20 10 -14 0 -20 7 -20 21 0 14 5 19
15 16 11 -5 12 -1 5 19 -7 19 -6 29 4 39 7 8 11 25 9 39 -4 20 -1 26 12 26 12
0 16 6 12 19 -3 14 1 21 14 23 27 4 28 20 2 24 -33 5 -73 -42 -73 -86 0 -16
-3 -30 -8 -30 -18 0 -44 44 -39 66 2 13 0 24 -4 24 -5 0 -9 11 -9 25 0 13 -11
35 -25 49 -25 25 -34 66 -15 66 6 0 10 25 10 55 0 30 -4 55 -9 55 -5 0 -17 7
-26 16 -21 22 -28 13 -15 -20 14 -38 13 -53 -5 -53 -8 0 -15 9 -15 19 0 10 -4
18 -10 18 -5 0 -10 9 -10 20 0 30 -21 69 -41 75 -11 4 -22 18 -26 33 -3 15 -9
29 -13 32 -4 3 -10 16 -14 30 -5 16 -4 20 2 12 17 -25 42 -2 42 39 0 21 0 42
0 47 1 4 -8 8 -20 10 -12 2 -20 11 -20 23 0 10 -7 19 -15 19 -22 0 -18 -16 10
-44 30 -30 32 -46 6 -46 -11 0 -22 -6 -24 -12 -3 -7 -6 -2 -6 12 -1 14 -10 36
-21 50 -11 14 -20 28 -20 33 0 7 -38 52 -77 93 -15 15 -17 54 -3 54 6 0 10 -9
10 -20 0 -11 4 -20 9 -20 12 0 21 26 21 61 0 19 5 29 15 29 18 0 18 5 5 30 -6
12 -17 16 -30 13 -16 -4 -20 0 -20 17 0 24 -27 56 -38 45 -4 -4 -1 -10 6 -12
6 -3 12 -15 12 -28 0 -13 -6 -26 -12 -29 -7 -3 -3 -3 10 0 20 5 22 2 22 -30 0
-20 -4 -36 -10 -36 -5 0 -10 9 -10 21 0 11 -4 18 -9 14 -13 -7 -25 31 -26 80
0 32 -4 40 -20 43 -34 7 -47 23 -40 51 4 14 12 29 18 33 9 6 8 11 -3 18 -11 7
-12 12 -4 18 16 10 19 42 6 72 l-11 25 0 -27 c-1 -16 -5 -28 -10 -28 -5 0 -12
-16 -15 -35 -9 -47 -24 -44 -28 5 -2 22 -7 39 -13 38 -5 -2 -15 20 -21 47 -9
43 -14 50 -32 48 -21 -3 -22 1 -22 62 0 37 4 65 10 65 6 0 10 11 10 25 0 18
-5 25 -20 25 -15 0 -20 -7 -20 -26 0 -31 -23 -28 -28 4 -2 12 -8 22 -13 22 -6
0 -7 5 -4 10 3 6 -1 13 -9 16 -10 4 -16 18 -16 35 0 22 -5 29 -19 29 -12 0
-21 9 -25 25 -4 17 -13 25 -27 25 -15 0 -19 5 -15 16 3 9 6 18 6 21 0 3 7 0
15 -7 12 -10 15 -10 15 4 0 9 5 16 10 16 6 0 10 20 10 45 0 32 4 45 14 45 8 0
17 -8 19 -17 4 -16 5 -16 6 -1 1 23 -11 29 -48 22 -28 -6 -45 -34 -21 -34 6 0
10 -4 10 -10 0 -5 -11 -10 -25 -10 -20 0 -25 5 -25 24 0 14 -4 28 -10 31 -5 3
-10 17 -10 31 0 13 -4 24 -10 24 -5 0 -10 5 -10 11 0 6 -6 17 -12 24 -35 39
-38 46 -32 72 4 16 10 30 14 33 4 3 9 25 12 50 3 25 4 39 1 33 -3 -7 -11 -13
-18 -13 -8 0 -15 -10 -17 -22 -3 -26 -38 -38 -38 -14 0 9 -4 16 -10 16 -5 0
-10 18 -10 41 0 28 -4 39 -12 37 -16 -6 -38 16 -38 36 0 9 -7 16 -15 16 -12 0
-14 8 -9 43 4 23 11 44 16 45 4 2 8 14 8 27 0 16 8 26 28 33 l27 10 -33 1
c-35 1 -62 -17 -62 -42 0 -7 -7 -14 -15 -14 -8 0 -15 9 -15 19 0 10 -4 18 -10
18 -5 0 -10 20 -10 44 0 39 -3 45 -22 48 -13 2 -24 11 -26 22 -5 23 -26 46
-41 46 -6 0 -11 7 -11 15 0 8 7 15 15 15 8 0 15 9 15 20 0 11 4 20 9 20 5 0
11 10 13 22 4 27 25 35 31 11 4 -17 5 -17 6 0 1 10 -10 21 -25 27 -32 12 -34
12 -34 -1 0 -13 -25 -39 -39 -39 -21 0 -22 22 -2 39 24 21 28 61 6 61 -8 0
-15 -9 -15 -20 0 -11 -4 -20 -10 -20 -5 0 -10 14 -10 30 0 17 5 30 10 30 6 0
10 14 10 30 0 17 5 30 10 30 15 0 12 39 -4 56 -23 22 -26 17 -26 -41 0 -48 -2
-55 -20 -55 -11 0 -20 4 -20 10 0 5 -16 12 -35 16 -19 3 -35 10 -35 15 0 13
34 11 49 -3 11 -11 12 -5 6 30 -4 28 -3 42 4 42 6 0 11 16 11 35 0 19 -4 35
-9 35 -5 0 -12 8 -14 18 -3 9 -5 0 -6 -20 -1 -27 -6 -38 -16 -38 -8 0 -15 9
-15 20 0 17 -7 20 -40 20 -22 0 -40 5 -40 10 0 6 8 10 18 10 30 0 49 34 56
102 5 52 3 68 -9 78 -11 9 -15 9 -15 1 0 -7 -4 -9 -10 -6 -13 8 -13 1 2 -47
13 -45 5 -59 -34 -51 -29 5 -38 27 -15 36 10 4 10 6 0 6 -15 1 -18 51 -3 51 6
0 10 15 10 33 0 17 9 43 20 57 21 26 27 70 10 70 -5 0 -10 -12 -11 -27 0 -16
-3 -21 -6 -13 -3 8 -15 25 -26 37 -15 17 -18 31 -14 58 4 26 2 35 -9 35 -9 0
-14 -11 -14 -35 0 -19 -5 -35 -11 -35 -8 0 -10 12 -6 35 4 26 2 35 -8 35 -7 0
-15 6 -18 13 -2 6 -7 -5 -11 -25 -7 -40 -31 -52 -39 -20 -4 16 -5 16 -6 0 -1
-18 -31 -26 -31 -9 0 21 13 41 26 41 8 0 14 9 14 20 0 11 -4 20 -10 20 -17 0
-11 25 10 40 28 20 25 30 -11 30 l-32 0 7 80 c4 44 5 80 2 80 -4 0 -15 -5 -26
-12 -10 -7 -23 -8 -27 -4 -4 5 -2 11 5 13 19 7 14 33 -7 33 -10 0 -19 -6 -18
-12 1 -44 -5 -78 -14 -78 -33 0 -49 63 -22 85 18 15 21 67 4 73 -10 3 -12 0
-8 -12 5 -13 0 -16 -27 -16 -26 0 -35 5 -40 23 -9 35 -7 97 4 97 6 0 10 -20
10 -45 0 -38 3 -45 20 -45 17 0 20 7 20 40 0 22 -5 40 -10 40 -6 0 -9 18 -8
40 2 22 6 40 11 40 4 0 7 5 7 10 0 6 -7 10 -15 10 -8 0 -15 5 -15 10 0 7 -6 7
-20 0 -13 -7 -20 -21 -20 -41 0 -38 -20 -62 -37 -43 -17 17 -29 114 -14 114 6
0 11 11 11 24 0 13 7 26 15 30 12 4 13 11 4 33 -16 42 -30 57 -40 41 -5 -7 -9
-17 -9 -23 0 -5 4 -3 10 5 12 20 21 9 13 -18 -3 -12 -12 -22 -19 -22 -10 0
-13 -7 -9 -22 4 -16 0 -27 -15 -36 -16 -10 -20 -10 -20 2 0 8 -6 16 -12 19
-10 3 -10 7 1 20 12 15 11 17 -8 17 -22 0 -28 14 -11 25 6 3 10 15 10 26 0 10
5 19 10 19 6 0 10 7 10 16 0 9 6 22 13 28 11 9 11 17 1 46 -7 19 -13 29 -13
21 -1 -7 -7 -11 -16 -7 -12 4 -15 -3 -15 -32 0 -30 -4 -38 -19 -38 -14 0 -20
9 -23 33 -3 22 0 33 9 33 7 0 13 7 13 15 0 8 -4 15 -10 15 -5 0 -10 7 -10 15
0 8 5 15 11 15 7 0 9 11 6 30 -5 23 -3 28 8 23 18 -6 20 20 3 35 -10 7 -20 2
-38 -19z"/>
<path d="M22285 46282 c-33 -7 -79 -18 -102 -23 -24 -5 -62 -13 -85 -18 -24
-6 -56 -13 -73 -16 -16 -4 -37 -9 -45 -12 -8 -3 -26 -7 -40 -8 -14 -2 -45 -9
-70 -15 -25 -6 -57 -13 -71 -14 -14 -2 -30 -6 -36 -9 -13 -8 -158 -39 -190
-41 -13 0 -23 -4 -23 -7 0 -4 -19 -10 -42 -13 -90 -11 -178 -30 -178 -38 0 -4
-17 -8 -37 -9 -29 -1 -33 -3 -16 -7 l22 -7 -24 -12 c-17 -7 -25 -8 -25 -1 0
13 -120 1 -135 -13 -5 -5 -22 -9 -37 -9 -15 0 -28 -4 -28 -10 0 -5 -18 -10
-40 -10 -22 0 -40 -4 -40 -9 0 -4 -27 -11 -60 -15 -33 -4 -62 -11 -65 -16 -4
-6 -19 -10 -36 -10 -32 0 -38 -14 -11 -29 9 -6 12 -11 5 -11 -6 0 -15 5 -18
10 -8 13 -72 13 -80 -1 -4 -6 -13 -8 -20 -5 -8 3 -28 0 -47 -6 -18 -6 -40 -13
-48 -15 -13 -4 -13 -5 0 -14 11 -7 7 -8 -13 -3 -26 6 -79 -5 -132 -27 -11 -4
-36 -11 -55 -14 -37 -7 -92 -23 -125 -36 -11 -4 -35 -11 -53 -14 -18 -4 -73
-20 -123 -35 -50 -16 -94 -28 -98 -27 -3 0 -16 -4 -27 -11 -12 -6 -24 -9 -27
-6 -3 3 -16 0 -28 -7 -13 -7 -42 -14 -64 -17 -22 -2 -44 -8 -49 -13 -6 -5 -18
-9 -28 -9 -10 0 -18 -5 -18 -11 0 -6 -9 -9 -20 -6 -19 5 -66 -6 -102 -24 -10
-5 -27 -9 -38 -9 -11 0 -20 -4 -20 -9 0 -5 -22 -12 -50 -16 -27 -4 -52 -11
-56 -16 -3 -5 -16 -9 -29 -9 -13 0 -27 -4 -30 -10 -3 -5 -17 -10 -31 -10 -13
0 -24 -4 -24 -9 0 -4 -21 -11 -46 -15 -26 -3 -52 -10 -58 -14 -6 -4 -29 -14
-51 -21 -22 -7 -49 -16 -60 -20 -11 -5 -47 -16 -80 -26 -33 -10 -64 -22 -70
-27 -5 -4 -17 -8 -27 -8 -10 0 -26 -4 -36 -9 -14 -8 -70 -27 -337 -114 -16 -6
-49 -19 -73 -29 -24 -10 -47 -16 -52 -13 -6 4 -10 1 -10 -4 0 -6 -10 -11 -23
-11 -13 0 -27 -4 -32 -8 -6 -4 -35 -16 -65 -26 -53 -17 -88 -30 -120 -45 -8
-4 -43 -16 -77 -27 -35 -10 -63 -22 -63 -26 0 -5 -8 -8 -18 -8 -10 0 -22 -4
-27 -8 -6 -4 -28 -14 -50 -21 -22 -7 -53 -19 -70 -26 -16 -7 -61 -25 -100 -40
-38 -15 -83 -33 -100 -40 -16 -6 -46 -18 -65 -25 -19 -7 -39 -16 -45 -20 -12
-9 -67 -24 -77 -22 -5 1 -8 -2 -8 -7 0 -5 -10 -11 -22 -14 -29 -6 -92 -30 -98
-37 -3 -3 -24 -12 -47 -20 -24 -7 -43 -17 -43 -21 0 -4 -9 -5 -20 -2 -11 3
-20 0 -20 -6 0 -6 -9 -11 -20 -11 -11 0 -20 -4 -20 -10 0 -5 -9 -10 -19 -10
-11 0 -22 -4 -25 -9 -3 -5 -17 -12 -32 -15 -14 -4 -59 -22 -101 -41 -41 -19
-76 -35 -79 -35 -4 0 -89 -39 -214 -98 -30 -14 -57 -27 -60 -27 -3 -1 -27 -11
-53 -23 -27 -12 -51 -22 -53 -22 -10 0 -215 -100 -609 -296 -379 -189 -518
-261 -635 -326 -25 -14 -72 -40 -105 -58 -33 -18 -95 -53 -138 -77 -42 -24
-99 -55 -125 -70 -26 -14 -59 -34 -74 -44 -14 -11 -31 -19 -36 -19 -6 0 -17
-6 -24 -13 -7 -6 -31 -21 -53 -32 -22 -11 -77 -44 -122 -72 -46 -29 -85 -53
-88 -53 -3 0 -49 -28 -103 -63 -53 -35 -104 -66 -112 -70 -8 -4 -27 -15 -42
-25 -15 -9 -74 -46 -130 -81 -57 -36 -104 -68 -106 -73 -2 -4 -8 -8 -13 -8 -6
0 -56 -32 -112 -70 -56 -39 -109 -75 -117 -80 -123 -79 -410 -283 -410 -291 0
-6 -4 -8 -8 -5 -4 2 -35 -15 -68 -39 -32 -25 -68 -51 -79 -59 -103 -75 -353
-263 -363 -273 -8 -7 -35 -27 -60 -45 -26 -18 -54 -39 -62 -47 -18 -18 -194
-160 -224 -181 -11 -8 -38 -31 -59 -50 -21 -19 -46 -39 -55 -44 -10 -5 -24
-17 -32 -25 -13 -14 -124 -108 -175 -148 -11 -9 -58 -50 -105 -93 -47 -42
-101 -89 -120 -106 -19 -16 -59 -52 -90 -80 -30 -28 -73 -66 -95 -85 -186
-161 -863 -842 -1058 -1065 -44 -49 -107 -120 -142 -159 -94 -106 -134 -152
-215 -250 -41 -49 -77 -92 -80 -95 -8 -8 -122 -150 -238 -295 -57 -71 -111
-139 -120 -150 -10 -11 -35 -45 -57 -75 -22 -30 -44 -60 -50 -66 -5 -6 -35
-46 -65 -88 -78 -108 -158 -218 -173 -236 -8 -9 -16 -22 -20 -30 -4 -8 -21
-33 -38 -55 -37 -49 -84 -118 -169 -246 -36 -54 -90 -136 -121 -181 -69 -101
-159 -242 -185 -285 -10 -18 -22 -33 -26 -33 -4 0 -8 -5 -8 -10 0 -6 -12 -29
-27 -53 -15 -23 -41 -67 -58 -97 -18 -30 -62 -104 -99 -164 -36 -60 -66 -110
-66 -112 0 -3 -11 -23 -26 -45 -28 -45 -52 -86 -80 -139 -11 -19 -21 -37 -24
-40 -3 -3 -19 -32 -35 -65 -17 -33 -32 -62 -35 -65 -3 -3 -14 -23 -25 -45 -11
-22 -31 -60 -46 -85 -26 -46 -142 -263 -188 -355 -15 -27 -29 -51 -33 -53 -5
-2 -8 -8 -8 -14 0 -11 -31 -80 -39 -88 -27 -24 -35 -80 -10 -65 5 4 9 -1 9 -9
0 -19 -30 -22 -30 -3 -1 22 -79 -147 -80 -171 0 -13 -4 -21 -8 -18 -5 3 -20
-21 -35 -53 -30 -66 -128 -274 -159 -338 -11 -23 -18 -49 -15 -57 4 -10 1 -13
-7 -10 -9 3 -16 -5 -20 -22 -4 -15 -23 -61 -42 -103 -20 -42 -39 -85 -43 -96
-5 -11 -17 -38 -27 -60 -19 -40 -21 -101 -3 -90 5 4 6 17 3 31 -5 17 -2 23 7
21 8 -2 11 -2 7 0 -18 10 8 34 43 39 21 4 39 10 39 14 0 18 35 20 48 3 10 -13
16 -14 19 -5 3 6 13 12 23 12 10 0 20 -6 23 -12 2 -8 8 -9 13 -4 5 5 4 11 -3
13 -7 3 -13 17 -13 31 0 30 -29 55 -50 42 -17 -10 -40 -2 -40 15 0 7 -7 15
-15 19 -20 7 -19 32 1 40 8 3 13 10 10 15 -9 14 4 41 20 41 8 0 14 4 14 10 0
5 14 23 31 39 16 16 26 32 20 35 -5 3 -17 -1 -25 -10 -15 -14 -16 -13 -16 7 0
18 4 21 29 16 24 -5 30 -2 35 16 5 18 8 19 15 7 7 -10 5 -20 -6 -32 -15 -17
-15 -18 5 -18 15 0 22 6 22 20 0 13 9 22 25 26 29 7 31 16 10 34 -22 18 -18
29 7 22 17 -4 20 -2 15 12 -10 24 15 46 52 46 22 0 31 5 31 16 0 14 -9 16 -50
12 -47 -5 -63 3 -40 17 5 3 10 11 10 16 0 5 -12 -1 -27 -15 -28 -26 -43 -26
-43 0 0 8 4 13 9 9 5 -3 11 7 13 22 2 19 8 28 20 27 12 -1 17 5 15 20 -1 13 4
21 13 21 8 0 19 6 23 13 5 7 18 10 33 6 14 -4 24 -2 24 5 0 6 5 11 10 11 6 0
10 -9 10 -20 0 -11 5 -20 10 -20 6 0 10 9 10 20 0 11 -4 20 -10 20 -5 0 -10 7
-10 16 0 14 -3 14 -15 4 -13 -10 -15 -9 -15 9 0 12 6 21 15 21 8 0 15 4 15 9
0 17 -20 23 -35 11 -12 -10 -15 -9 -15 4 0 10 4 15 9 12 11 -7 25 23 22 44 -2
8 6 4 18 -10 17 -21 20 -22 21 -7 0 11 4 15 12 11 8 -5 4 -13 -12 -26 -12 -10
-21 -21 -18 -23 7 -8 38 6 38 16 0 5 5 9 11 9 16 0 39 26 39 44 0 9 11 18 25
22 18 4 25 13 25 31 0 34 19 49 68 58 23 4 42 11 42 16 0 5 32 9 70 9 l70 0 0
41 c0 36 17 69 35 69 10 0 35 28 35 39 0 6 9 11 20 11 12 0 32 11 45 25 26 25
32 45 15 45 -5 0 -10 5 -10 10 0 6 16 10 35 10 19 0 35 -4 35 -10 0 -5 5 -10
10 -10 6 0 10 13 10 29 0 21 6 32 20 36 11 3 20 15 20 26 0 10 5 19 10 19 6 0
10 7 10 15 0 10 11 15 35 15 19 0 35 5 35 10 0 6 30 10 70 10 40 0 70 4 70 10
0 6 16 10 35 10 19 0 35 5 35 10 0 6 -4 10 -10 10 -15 0 -12 67 3 73 9 4 8 8
-3 16 -12 9 -11 11 8 11 12 0 22 5 22 10 0 6 7 10 15 10 8 0 15 -4 15 -10 0
-18 32 -11 51 12 12 13 19 36 19 65 0 41 1 43 30 43 17 0 30 -4 30 -10 0 -5 7
-10 15 -10 8 0 15 5 15 10 0 6 9 10 20 10 18 0 20 7 20 70 l0 70 80 0 c73 0
80 2 80 20 0 17 7 20 45 20 38 0 45 -3 45 -20 0 -11 4 -20 10 -20 5 0 7 -14 5
-31 -4 -33 24 -77 33 -51 5 16 89 16 95 0 7 -21 16 -5 23 40 l7 42 -76 0 -76
0 -5 43 c-3 23 -7 59 -9 80 l-3 37 68 0 c39 0 68 -4 68 -10 0 -5 5 -10 10 -10
6 0 10 28 10 64 l0 63 52 2 c86 1 88 3 88 77 0 49 3 64 14 64 8 0 17 -6 20
-12 5 -10 7 -10 12 0 7 14 44 16 44 2 0 -21 20 -9 26 15 6 24 10 25 75 25 l69
0 0 65 0 65 75 0 75 0 0 40 c0 22 -4 40 -10 40 -5 0 -10 7 -10 16 0 12 9 15
43 14 23 -2 59 -2 80 -1 36 1 37 2 37 41 0 29 4 40 15 40 8 0 15 5 15 10 0 6
-7 10 -15 10 -24 0 -18 27 8 34 12 3 43 6 70 6 35 0 47 4 47 15 0 12 13 15 59
15 52 0 59 -2 65 -22 9 -37 7 -118 -4 -118 -5 0 -10 -4 -10 -10 0 -5 7 -10 15
-10 8 0 15 5 15 10 0 6 9 10 20 10 13 0 20 7 20 20 0 11 6 20 14 20 18 0 81
58 72 67 -3 4 -33 6 -66 5 -47 -1 -60 1 -60 13 0 8 -4 15 -10 15 -14 0 -12 52
4 73 7 9 19 17 25 17 15 0 41 25 41 39 0 6 11 11 24 11 13 0 27 6 30 13 5 10
7 10 12 0 3 -7 10 -13 15 -13 14 0 11 37 -3 44 -10 5 -10 7 0 12 6 3 12 12 12
20 0 8 10 14 24 14 16 0 27 7 31 20 3 11 12 20 20 20 8 0 17 -9 20 -20 7 -23
10 -24 84 -24 l55 -1 2 -39 c3 -40 14 -60 21 -38 3 6 14 12 25 12 25 0 48 23
48 49 0 16 -6 21 -24 21 -13 0 -27 6 -30 13 -5 10 -7 10 -12 0 -3 -7 -10 -13
-15 -13 -12 0 -11 151 1 170 6 10 10 11 10 3 0 -7 9 -13 20 -13 11 0 20 5 20
10 0 6 23 10 50 10 48 0 50 1 44 24 -8 33 4 66 23 66 18 0 53 37 53 57 0 8 12
13 30 13 24 0 30 4 30 21 0 29 24 49 59 49 24 0 31 4 31 20 0 11 7 20 15 20 8
0 15 -9 15 -20 0 -17 7 -20 50 -20 63 0 96 -25 86 -64 -6 -24 -4 -26 29 -26
35 0 35 0 35 45 0 43 -1 45 -30 45 -23 0 -30 5 -30 19 0 11 6 22 13 24 9 4 8
8 -3 16 -10 7 -11 11 -2 11 6 0 12 9 12 20 0 11 -4 20 -10 20 -15 0 -12 39 4
56 9 8 35 14 65 14 44 0 51 3 51 20 0 11 5 20 10 20 6 0 10 11 10 25 0 20 5
25 25 25 20 0 25 5 25 25 0 22 4 25 35 25 33 0 35 2 35 35 0 35 0 35 45 35 34
0 45 4 45 16 0 18 23 44 39 44 6 0 11 -9 11 -20 0 -13 7 -20 20 -20 11 0 20
-4 20 -10 0 -5 7 -10 15 -10 8 0 15 5 15 10 0 6 14 10 31 10 32 0 34 -5 14
-52 -6 -16 -1 -18 39 -18 39 0 46 3 46 19 0 11 2 25 5 33 7 18 -15 48 -22 31
-6 -17 -21 -16 -39 1 -9 10 -14 36 -14 76 0 80 10 90 94 90 37 0 66 4 66 10 0
6 -4 10 -10 10 -5 0 -10 7 -10 15 0 8 4 15 9 15 5 0 13 9 16 20 5 15 15 20 41
20 41 0 74 29 74 66 0 26 20 54 39 54 6 0 11 5 11 10 0 6 37 10 90 10 53 0 90
-4 90 -10 0 -5 9 -10 20 -10 11 0 20 -7 20 -15 0 -8 -9 -15 -20 -15 -13 0 -20
-7 -20 -20 0 -22 15 -27 24 -7 5 10 7 10 12 0 7 -15 34 -17 34 -3 0 6 9 10 20
10 11 0 20 7 20 15 0 8 5 15 10 15 16 0 12 30 -7 48 -12 12 -18 13 -21 4 -5
-16 -20 -15 -38 2 -18 18 -19 102 -1 109 9 4 9 8 -2 15 -12 9 -12 13 2 26 19
19 73 21 81 4 5 -10 7 -10 12 0 3 6 23 12 45 12 21 0 39 5 39 10 0 6 -11 10
-25 10 -19 0 -25 5 -25 21 0 29 20 46 68 54 28 4 43 13 47 26 4 10 11 19 16
19 17 0 10 68 -8 79 -13 7 23 10 125 11 88 0 142 -4 142 -10 0 -5 5 -10 10
-10 6 0 10 33 10 80 0 47 4 80 10 80 6 0 10 9 10 20 0 17 7 20 50 20 54 0 56
4 52 78 -1 21 3 22 74 22 l74 0 0 65 0 65 70 0 c63 0 70 -2 70 -20 0 -11 7
-20 15 -20 8 0 15 9 15 20 0 17 7 20 45 20 l45 0 0 -40 c0 -33 7 -47 35 -75
34 -35 55 -44 55 -25 0 6 -6 10 -14 10 -30 0 -35 59 -6 80 11 8 20 22 20 32 0
15 -9 18 -45 18 l-45 0 0 70 0 70 35 0 c24 0 35 5 35 15 0 8 5 15 10 15 6 0
10 9 10 20 0 13 7 20 19 20 13 0 23 11 31 35 11 32 15 35 51 35 21 0 39 5 39
10 0 6 14 10 30 10 30 0 30 1 30 53 l0 52 115 3 c95 3 117 1 131 -12 14 -15
14 -17 0 -32 -22 -22 -20 -31 10 -38 33 -9 62 1 91 30 35 35 31 57 -9 51 -18
-2 -43 0 -55 6 -21 9 -23 17 -23 84 0 66 2 73 20 73 13 0 20 -7 20 -20 0 -23
16 -26 36 -6 10 11 11 15 2 18 -7 3 3 20 25 42 20 20 37 43 37 51 0 11 12 15
41 15 39 0 69 17 69 39 0 6 9 11 19 11 11 0 23 9 26 20 3 11 11 20 16 20 5 0
9 5 9 10 0 6 -7 10 -15 10 -8 0 -15 7 -15 15 0 13 21 15 126 15 95 0 129 3
140 14 16 17 19 56 4 56 -16 0 -11 50 7 68 12 12 18 13 21 4 6 -19 20 -14 28
10 9 28 49 68 69 68 9 0 15 9 15 25 0 15 6 25 14 25 8 0 17 6 20 13 5 10 7 10
12 0 9 -21 43 -15 69 12 26 25 32 45 15 45 -15 0 -12 39 4 56 11 11 44 14 135
14 120 0 121 0 127 -25 6 -24 44 -37 44 -15 0 6 27 10 60 10 47 0 60 3 60 15
0 12 -14 15 -66 15 -43 0 -70 5 -80 14 -21 21 -19 132 3 154 12 12 18 13 21 4
4 -14 32 -16 32 -2 0 6 14 10 30 10 28 0 30 2 30 41 0 55 17 69 84 69 l56 0 0
46 c0 26 6 51 14 60 18 17 52 18 60 2 5 -10 7 -10 12 0 4 8 30 12 81 12 80 0
103 -11 103 -49 0 -17 6 -21 35 -21 28 0 35 4 35 20 0 11 5 20 10 20 6 0 10
-5 10 -12 0 -6 3 -9 6 -5 3 3 3 15 -1 26 -5 17 -15 21 -45 21 -30 0 -40 4 -45
21 -9 27 3 109 16 109 5 0 9 11 9 25 0 24 3 25 55 25 42 0 55 3 55 15 0 8 5
15 10 15 14 0 12 38 -2 42 -23 8 18 38 51 38 28 0 31 -3 31 -30 0 -38 16 -39
23 -1 4 18 14 32 27 36 15 5 20 15 20 40 0 18 -5 35 -12 37 -6 2 -9 12 -5 21
6 15 24 17 137 17 l130 0 0 -25 c0 -21 5 -25 29 -25 42 0 61 10 61 31 0 15 -7
19 -39 19 -35 0 -40 3 -46 28 -6 30 0 100 10 110 3 4 10 0 15 -7 7 -12 11 -12
24 2 9 8 16 23 16 32 0 32 43 59 53 33 2 -7 8 -9 13 -5 5 4 2 13 -6 18 -11 8
-12 12 -2 16 6 2 12 13 12 23 0 20 51 43 75 34 10 -4 15 0 15 15 0 12 6 21 14
21 10 0 16 14 18 43 l3 42 143 3 c113 2 142 5 142 16 0 8 6 17 13 20 10 5 10
7 0 12 -15 7 -18 94 -3 94 6 0 10 -5 10 -10 0 -6 16 5 35 24 19 20 35 40 35
46 0 5 7 10 15 10 8 0 15 9 15 19 0 21 19 31 61 31 22 0 29 5 29 20 0 13 7 20
19 20 11 0 23 9 26 20 3 11 11 20 16 20 14 0 11 28 -3 32 -9 3 -8 9 4 21 13
14 36 17 127 16 102 -1 111 -3 111 -20 0 -10 5 -19 10 -19 6 0 10 -7 10 -15 0
-16 12 -18 48 -9 13 4 22 14 22 25 0 12 7 19 20 19 11 0 20 7 20 15 0 18 -66
22 -72 4 -2 -5 -11 -7 -21 -4 -20 8 -24 80 -4 89 10 5 10 7 0 12 -20 9 -15 24
7 24 13 0 20 7 20 20 0 15 7 20 25 20 14 0 25 5 25 11 0 14 25 39 39 39 6 0
11 11 11 25 0 18 5 25 19 25 11 0 22 6 25 13 5 10 7 10 12 0 3 -7 10 -13 15
-13 13 0 59 46 59 60 0 5 7 10 15 10 11 0 15 11 15 40 l0 40 125 0 125 0 0 70
0 70 35 0 c24 0 35 5 35 15 0 8 5 15 10 15 6 0 10 9 10 20 0 15 7 20 25 20 22
0 25 4 25 35 l0 35 51 0 c49 0 79 15 79 39 0 6 5 11 10 11 6 0 10 20 10 45 0
32 4 45 14 45 8 0 17 -6 20 -12 5 -10 7 -10 12 0 4 8 36 12 110 12 l104 0 0
55 c0 30 5 55 10 55 6 0 10 7 10 15 0 8 5 15 10 15 6 0 10 -11 10 -25 0 -40
17 -29 24 16 4 23 13 47 21 55 16 16 75 19 75 4 0 -5 5 -10 10 -10 17 0 11 22
-11 41 -19 16 -20 20 -6 34 9 8 27 15 41 15 16 0 27 7 31 21 4 13 12 18 22 15
8 -3 22 2 31 11 12 12 13 18 4 21 -33 11 4 52 47 52 17 0 31 5 31 10 0 6 38
10 95 10 l95 0 0 -60 c0 -53 2 -60 20 -60 11 0 20 7 20 15 0 8 4 15 10 15 5 0
12 11 16 25 3 14 10 25 15 25 12 0 11 24 -3 55 -14 30 -43 35 -33 5 4 -12 2
-20 -5 -20 -23 0 -40 30 -40 70 0 37 3 41 29 46 22 5 30 13 35 35 3 17 12 29
21 29 21 0 45 24 45 43 0 29 12 47 31 47 10 0 19 -4 19 -10 0 -5 11 -10 25
-10 20 0 25 5 25 25 0 16 6 25 16 25 25 0 44 26 44 59 0 29 3 31 35 31 19 0
35 5 35 10 0 6 32 10 76 10 82 0 104 11 104 52 0 39 12 68 27 68 19 0 43 25
43 44 0 10 9 16 23 16 31 0 67 32 67 59 0 15 7 21 25 23 14 0 31 1 38 2 18 1
37 22 37 40 0 9 8 16 20 16 15 0 20 7 20 25 0 14 -4 25 -10 25 -5 0 -10 5 -10
10 0 6 11 10 25 10 14 0 25 5 25 10 0 6 9 10 20 10 11 0 20 -4 20 -10 0 -21
28 -9 34 15 6 24 10 25 76 25 l70 0 0 35 c0 24 5 35 15 35 8 0 15 5 15 10 0 6
7 10 16 10 22 0 44 25 44 49 0 17 6 21 35 21 19 0 35 5 35 10 0 6 -4 10 -10
10 -5 0 -10 11 -10 25 0 23 4 25 43 25 31 0 46 5 57 20 8 11 20 20 27 20 7 0
13 7 13 15 0 8 9 15 20 15 11 0 20 5 20 10 0 6 -9 10 -20 10 -11 0 -20 -4 -20
-10 0 -5 -4 -10 -10 -10 -5 0 -10 14 -10 30 0 30 1 30 55 30 30 0 55 5 55 10
0 6 11 10 25 10 16 0 25 6 25 15 0 12 14 15 66 15 65 0 66 0 64 28 -4 51 -1
59 14 40 18 -24 29 -23 21 2 -5 17 -2 20 24 20 17 0 31 5 31 11 0 6 14 9 32 7
19 -2 33 2 35 10 3 7 -4 12 -18 12 -12 0 -20 3 -16 6 3 4 17 4 31 0 22 -5 25
-10 19 -36 -3 -19 -1 -30 6 -30 6 0 11 7 11 16 0 15 23 44 34 44 3 0 6 -13 6
-30 0 -39 16 -39 24 1 10 52 7 79 -9 79 -8 0 -15 4 -15 10 0 5 6 7 14 4 7 -3
26 9 42 25 29 31 57 44 34 16 -12 -14 -6 -35 10 -35 5 0 7 7 4 15 -4 10 0 15
15 15 12 0 21 6 21 15 0 17 16 20 25 5 4 -6 13 -7 24 -1 21 12 64 9 71 -4 3
-6 -3 -11 -12 -13 -10 -2 -18 1 -18 7 0 6 -7 11 -15 11 -8 0 -15 -4 -15 -9 0
-5 -9 -13 -21 -16 -25 -8 -20 -30 7 -30 10 0 22 -4 25 -9 4 -4 16 -3 27 3 15
8 21 8 24 0 4 -13 67 15 80 35 5 8 8 7 8 -1 0 -7 9 -13 20 -13 11 0 20 5 20
10 0 6 -8 10 -19 10 -22 0 -35 38 -19 57 6 8 33 13 69 13 56 0 59 -1 59 -25 0
-14 -4 -25 -10 -25 -5 0 -10 -4 -10 -10 0 -5 9 -10 20 -10 16 0 20 7 20 35 0
19 -5 35 -11 35 -6 0 -9 6 -7 12 5 15 66 29 74 17 7 -12 44 -12 44 0 0 5 -8
12 -17 15 -10 3 0 3 21 1 27 -3 43 0 50 11 8 10 20 13 44 8 32 -6 41 -17 23
-29 -5 -3 -17 2 -26 11 -9 9 -19 14 -22 10 -8 -8 58 -67 70 -63 18 6 20 27 3
27 -19 0 -21 16 -3 23 10 4 10 7 0 18 -7 7 -13 16 -13 20 0 4 6 6 13 6 27 -2
128 16 133 24 9 15 44 10 51 -8 5 -14 8 -13 15 7 6 16 14 21 28 17 11 -3 20
-1 20 4 0 5 11 9 25 9 14 0 25 4 25 9 0 6 19 11 43 13 32 2 36 4 17 8 -14 3
-52 -1 -85 -8z"/>
<path d="M29595 40969 c-22 -4 -67 -8 -99 -8 -33 -1 -96 -5 -140 -11 -45 -5
-151 -15 -236 -21 -168 -12 -234 -19 -585 -54 -315 -32 -400 -42 -550 -60
-307 -38 -458 -58 -570 -75 -38 -6 -117 -18 -175 -26 -58 -8 -132 -19 -165
-24 -33 -4 -91 -13 -130 -20 -38 -6 -113 -18 -165 -26 -52 -8 -117 -19 -145
-23 -27 -5 -97 -17 -155 -26 -107 -17 -169 -29 -250 -45 -25 -4 -88 -16 -140
-24 -52 -9 -115 -21 -140 -26 -25 -5 -85 -16 -135 -25 -142 -26 -277 -52 -380
-74 -27 -6 -84 -18 -125 -26 -41 -8 -93 -19 -115 -24 -36 -8 -128 -28 -240
-51 -22 -5 -58 -13 -80 -19 -66 -17 -178 -42 -210 -47 -16 -3 -39 -9 -50 -14
-11 -5 -33 -11 -50 -15 -121 -25 -165 -35 -200 -45 -40 -11 -58 -16 -175 -44
-36 -8 -83 -20 -105 -26 -22 -6 -62 -16 -90 -21 -27 -5 -59 -14 -70 -19 -11
-4 -31 -11 -45 -13 -14 -3 -70 -17 -125 -32 -55 -15 -125 -33 -155 -40 -64
-16 -92 -24 -215 -60 -105 -30 -188 -54 -230 -65 -29 -8 -67 -19 -265 -80 -52
-16 -122 -37 -155 -46 -33 -9 -69 -20 -80 -24 -11 -5 -31 -12 -45 -16 -29 -9
-26 -9 -65 -18 -16 -4 -38 -11 -47 -17 -10 -5 -25 -9 -33 -9 -8 0 -23 -4 -33
-9 -9 -5 -145 -51 -302 -102 -157 -51 -292 -96 -300 -100 -8 -5 -51 -20 -95
-34 -44 -14 -89 -30 -100 -35 -11 -4 -42 -16 -70 -25 -27 -9 -58 -21 -67 -26
-10 -5 -27 -9 -37 -9 -11 0 -22 -4 -25 -9 -3 -5 -18 -12 -33 -15 -30 -7 -117
-39 -170 -62 -17 -8 -36 -14 -42 -14 -6 0 -19 -4 -29 -9 -9 -6 -69 -29 -132
-51 -63 -23 -128 -48 -145 -55 -16 -7 -68 -28 -115 -45 -47 -18 -101 -39 -120
-47 -19 -8 -44 -19 -55 -23 -11 -4 -36 -15 -57 -24 -20 -9 -39 -16 -42 -16 -6
0 -37 -13 -154 -66 -29 -13 -59 -24 -67 -24 -7 0 -17 -4 -20 -10 -3 -5 -13
-10 -21 -10 -8 0 -37 -11 -66 -25 -28 -14 -55 -25 -59 -25 -4 0 -36 -13 -71
-29 -35 -16 -91 -41 -126 -55 -34 -15 -91 -39 -125 -55 -60 -28 -99 -45 -202
-91 -27 -12 -84 -38 -125 -57 -41 -19 -93 -43 -115 -53 -276 -127 -974 -475
-1255 -627 -168 -90 -184 -99 -222 -121 -21 -12 -68 -38 -105 -58 -118 -64
-415 -235 -480 -275 -34 -21 -65 -39 -68 -39 -2 0 -37 -21 -77 -47 -40 -25
-88 -55 -107 -65 -30 -17 -272 -167 -409 -253 -39 -24 -420 -272 -474 -309
-72 -48 -341 -233 -373 -257 -22 -16 -62 -45 -90 -64 -27 -19 -90 -63 -140
-99 -49 -36 -101 -74 -115 -83 -23 -16 -382 -286 -405 -305 -46 -36 -101 -79
-145 -113 -29 -22 -80 -63 -114 -91 -33 -27 -70 -57 -82 -65 -11 -8 -40 -30
-63 -49 -23 -19 -61 -51 -85 -70 -23 -19 -65 -53 -91 -75 -27 -22 -70 -58 -96
-80 -26 -22 -86 -74 -134 -115 -48 -41 -100 -86 -115 -100 -15 -14 -40 -36
-56 -49 -85 -72 -177 -153 -239 -211 -39 -36 -118 -107 -175 -159 -129 -116
-1028 -1016 -1090 -1091 -25 -30 -76 -88 -115 -130 -88 -96 -172 -191 -303
-345 -189 -222 -317 -377 -417 -505 -44 -57 -85 -108 -90 -114 -6 -6 -19 -23
-30 -37 -11 -14 -74 -97 -140 -184 -165 -217 -404 -553 -552 -775 -67 -102
-127 -190 -133 -197 -5 -7 -10 -16 -10 -21 0 -4 -8 -17 -17 -28 -10 -11 -23
-29 -30 -40 -7 -10 -60 -94 -118 -186 -58 -92 -105 -171 -105 -177 0 -5 -4
-11 -8 -13 -4 -1 -45 -68 -91 -148 -46 -80 -96 -165 -111 -190 -15 -25 -45
-76 -65 -115 -21 -38 -46 -81 -55 -95 -40 -60 -404 -768 -470 -915 -12 -27
-42 -93 -67 -145 -24 -52 -48 -104 -53 -115 -5 -11 -22 -50 -39 -86 -17 -37
-31 -69 -31 -73 0 -3 -12 -31 -27 -63 -15 -32 -28 -60 -28 -63 -4 -13 -19 -50
-41 -96 -13 -28 -24 -54 -24 -58 0 -3 -10 -28 -21 -54 -26 -56 -42 -95 -59
-142 -7 -19 -17 -39 -22 -44 -4 -6 -8 -16 -8 -24 0 -8 -7 -30 -16 -50 -22 -51
-29 -70 -49 -127 -9 -27 -23 -64 -31 -82 -8 -17 -14 -36 -14 -42 0 -6 -4 -20
-10 -31 -6 -11 -15 -29 -20 -40 -5 -11 -10 -29 -10 -39 0 -11 -4 -22 -9 -25
-5 -3 -12 -22 -16 -42 -3 -20 -10 -44 -15 -53 -19 -39 -43 -105 -45 -123 0 -3
-3 -10 -7 -14 -5 -4 -8 -16 -8 -26 0 -10 -4 -27 -10 -38 -6 -11 -14 -28 -19
-38 -5 -10 -12 -37 -16 -60 -4 -23 -11 -44 -16 -48 -5 -3 -9 -15 -9 -28 0 -12
-4 -26 -8 -31 -8 -11 -13 -25 -57 -170 -15 -49 -37 -124 -50 -165 -13 -41 -26
-91 -30 -110 -3 -19 -10 -44 -14 -55 -16 -40 -30 -91 -37 -133 -4 -23 -11 -45
-15 -48 -5 -3 -9 -18 -9 -33 0 -15 -3 -31 -7 -35 -7 -7 -27 -87 -40 -164 -3
-18 -9 -35 -14 -38 -5 -3 -9 -18 -9 -34 0 -16 -4 -31 -9 -34 -5 -3 -12 -35
-16 -71 -3 -36 -11 -67 -16 -70 -5 -4 -9 -21 -9 -40 0 -19 -4 -36 -9 -39 -8
-5 -14 -31 -25 -111 -3 -16 -10 -50 -16 -75 -17 -68 -31 -132 -34 -161 -2 -15
-7 -37 -11 -50 -5 -13 -9 -35 -11 -49 -1 -14 -8 -47 -14 -75 -16 -73 -30 -145
-35 -185 -4 -33 -10 -71 -35 -205 -6 -33 -13 -76 -15 -95 -2 -19 -8 -65 -14
-102 -27 -169 -32 -206 -36 -248 -2 -25 -8 -81 -14 -125 -21 -147 -33 -250
-36 -300 -1 -27 -8 -102 -14 -165 -23 -233 -33 -357 -36 -440 -1 -47 -5 -112
-9 -145 -27 -239 -24 -1436 4 -1700 6 -55 10 -120 9 -145 -1 -42 9 -174 32
-405 6 -55 12 -125 14 -156 1 -31 6 -71 10 -90 5 -19 10 -59 11 -89 3 -55 13
-132 35 -285 6 -44 13 -96 15 -115 3 -38 19 -143 33 -230 14 -82 41 -259 47
-305 3 -22 9 -49 14 -60 5 -11 14 -56 20 -100 18 -132 21 -149 30 -170 8 -18
16 -62 23 -125 2 -14 6 -32 9 -40 4 -8 9 -28 12 -45 3 -16 10 -50 15 -75 6
-25 17 -76 25 -115 8 -38 20 -89 25 -112 6 -24 16 -62 22 -85 5 -24 15 -68 20
-98 6 -30 14 -64 19 -75 5 -11 11 -31 14 -45 2 -14 10 -43 16 -65 6 -22 12
-50 13 -62 1 -12 5 -25 10 -29 4 -4 7 -20 7 -35 0 -15 5 -31 10 -34 6 -3 10
-19 10 -35 0 -16 4 -31 9 -34 5 -4 12 -29 16 -58 4 -29 11 -59 15 -68 11 -21
27 -79 35 -120 3 -19 10 -44 15 -55 4 -11 15 -47 25 -80 9 -33 28 -98 42 -145
14 -47 30 -101 35 -120 6 -19 14 -43 19 -52 5 -10 9 -27 9 -37 0 -11 4 -22 9
-25 5 -4 12 -25 16 -49 4 -23 10 -46 14 -52 4 -5 20 -50 36 -100 15 -49 32
-94 37 -99 4 -6 8 -20 8 -32 0 -13 4 -25 9 -28 5 -4 12 -24 16 -46 4 -22 11
-42 16 -46 5 -3 9 -16 9 -29 0 -13 4 -26 9 -29 5 -3 12 -22 16 -42 3 -20 11
-45 16 -55 5 -11 13 -27 18 -37 5 -10 12 -33 16 -52 4 -19 11 -41 15 -50 12
-24 24 -54 90 -230 34 -91 68 -178 75 -195 7 -16 48 -115 90 -220 87 -213 220
-491 247 -516 10 -9 18 -21 18 -26 0 -6 7 -17 16 -24 9 -7 20 -22 25 -34 5
-11 15 -29 21 -39 47 -73 78 -127 78 -136 0 -5 5 -10 10 -10 6 0 10 -6 10 -13
0 -7 8 -22 17 -33 25 -28 43 -61 43 -79 0 -8 4 -15 8 -15 11 0 62 -78 62 -96
0 -8 7 -14 15 -14 8 0 15 -5 15 -11 0 -10 64 -112 85 -135 9 -11 75 -112 101
-155 6 -11 18 -27 26 -36 9 -10 17 -22 19 -28 4 -11 142 -216 197 -294 18 -25
43 -62 57 -81 14 -19 43 -60 65 -90 74 -102 100 -141 100 -151 0 -5 4 -9 8 -9
5 0 24 -22 43 -50 19 -27 37 -50 42 -50 4 0 7 -6 7 -13 0 -8 9 -22 20 -32 11
-10 20 -23 20 -30 0 -6 11 -22 25 -35 14 -13 25 -32 25 -42 0 -10 5 -18 11
-18 11 0 48 -39 49 -52 0 -4 10 -18 23 -32 12 -13 40 -47 62 -76 22 -28 48
-61 58 -72 10 -12 20 -32 23 -45 4 -13 12 -23 20 -23 7 0 21 -15 30 -32 9 -18
25 -39 36 -46 10 -7 25 -26 33 -42 8 -15 27 -41 42 -57 15 -16 42 -47 58 -68
61 -77 110 -137 305 -370 127 -152 206 -245 317 -370 34 -38 93 -105 130 -147
103 -116 235 -260 359 -388 61 -63 130 -137 154 -165 48 -54 555 -558 632
-628 25 -23 97 -91 160 -152 62 -60 156 -148 208 -195 52 -47 133 -121 181
-165 47 -44 126 -114 174 -155 48 -41 131 -113 185 -160 54 -47 133 -114 175
-150 42 -36 82 -69 88 -75 7 -5 39 -32 72 -60 33 -27 62 -53 63 -57 2 -5 8 -8
14 -8 6 0 30 -17 53 -37 23 -21 71 -60 106 -88 35 -27 71 -57 81 -65 52 -46
97 -82 128 -102 19 -13 37 -34 41 -48 4 -14 7 -19 8 -12 3 36 61 -8 61 -46 0
-12 5 -22 11 -22 5 0 7 4 4 10 -10 16 31 -3 59 -27 15 -13 30 -23 35 -23 5 0
15 -7 22 -16 8 -9 31 -28 53 -41 21 -14 41 -33 43 -44 3 -10 9 -16 14 -13 12
7 58 -28 59 -44 0 -7 5 -10 10 -7 6 4 24 -7 41 -24 17 -17 36 -31 43 -31 7 0
21 -9 31 -20 10 -11 22 -20 27 -20 5 0 20 -10 33 -23 13 -12 40 -33 60 -47 69
-47 95 -72 88 -83 -4 -7 0 -8 11 -4 17 7 27 1 148 -92 14 -12 30 -21 35 -21 5
0 20 -11 33 -25 13 -14 29 -25 36 -25 7 0 14 -4 16 -9 2 -4 28 -25 58 -45 30
-19 97 -65 148 -101 51 -36 95 -65 99 -65 4 0 15 -7 25 -17 10 -9 27 -21 37
-27 11 -6 79 -51 153 -101 73 -49 141 -93 151 -97 9 -4 17 -18 17 -30 0 -16 3
-19 8 -10 10 16 42 5 42 -14 0 -8 9 -14 20 -14 13 0 24 -10 31 -27 8 -21 12
-24 19 -13 7 11 11 11 24 1 8 -7 15 -16 14 -19 0 -4 0 -14 2 -22 1 -12 3 -11
8 2 6 15 19 10 92 -38 47 -30 86 -61 88 -69 2 -7 10 -11 18 -8 8 3 26 -3 41
-13 47 -33 78 -54 93 -61 8 -4 59 -35 112 -70 54 -35 102 -63 108 -63 5 0 10
-4 10 -10 0 -5 6 -10 14 -10 8 0 21 -6 28 -12 7 -7 27 -20 43 -28 17 -8 48
-26 70 -40 22 -14 49 -31 60 -37 11 -7 45 -27 75 -43 30 -17 84 -49 120 -71
36 -22 79 -46 96 -54 17 -8 34 -25 38 -37 5 -18 8 -20 15 -9 7 11 12 10 29 -7
11 -11 23 -18 26 -15 2 3 17 -4 33 -14 15 -11 57 -34 93 -53 36 -18 76 -40 90
-50 14 -9 50 -29 80 -44 53 -26 114 -60 190 -103 79 -45 150 -83 248 -132 56
-29 102 -57 102 -62 0 -5 6 -9 13 -9 8 0 19 -10 25 -22 10 -22 11 -22 12 -3 1
19 1 19 14 2 8 -10 18 -16 22 -15 15 5 645 -313 651 -329 3 -8 13 -11 24 -8
11 4 19 2 19 -4 0 -6 9 -11 21 -11 11 0 18 -4 14 -9 -3 -5 -1 -12 5 -16 5 -3
10 0 10 7 1 9 5 7 14 -4 7 -10 16 -15 19 -12 5 5 59 -15 102 -39 26 -14 78
-39 136 -65 25 -12 50 -31 57 -44 8 -18 11 -19 11 -5 1 22 20 21 51 -3 14 -11
29 -20 34 -20 9 0 45 -16 209 -94 54 -25 100 -46 103 -46 14 0 94 -42 94 -49
0 -5 18 -11 40 -15 24 -4 40 -12 40 -20 0 -9 7 -12 20 -9 13 4 20 0 20 -10 0
-18 27 -30 32 -15 3 8 23 2 58 -15 30 -15 60 -27 66 -27 7 0 34 -11 61 -25 26
-14 54 -27 63 -29 8 -1 41 -14 73 -29 32 -15 60 -27 63 -27 3 0 21 -7 40 -15
19 -8 49 -22 68 -30 19 -8 37 -15 40 -15 7 0 90 -36 118 -51 10 -5 25 -9 33
-9 8 0 15 -4 15 -9 0 -5 12 -11 28 -14 15 -3 45 -14 67 -23 22 -10 60 -25 85
-34 25 -8 44 -20 43 -27 -1 -6 6 -9 16 -6 17 4 146 -41 166 -58 5 -5 20 -9 33
-9 16 0 22 -4 19 -14 -4 -10 0 -12 14 -9 25 7 81 -16 72 -30 -3 -6 -1 -7 6 -3
16 10 81 -13 81 -28 0 -8 10 -11 30 -8 24 3 30 1 30 -14 0 -13 3 -15 11 -7 10
10 69 -4 85 -20 4 -4 16 -7 26 -7 10 0 18 -6 18 -12 0 -8 14 -13 34 -14 36 0
106 -30 106 -44 0 -5 7 -7 15 -4 13 6 88 -16 127 -37 10 -5 26 -9 36 -9 10 0
22 -4 27 -9 6 -5 54 -24 107 -41 54 -18 95 -37 92 -42 -3 -5 6 -6 20 -2 19 4
28 2 32 -10 3 -9 10 -13 15 -10 11 6 177 -44 185 -57 3 -5 16 -9 29 -9 13 0
27 -4 30 -10 3 -5 15 -10 26 -10 10 0 27 -4 37 -9 9 -5 40 -16 67 -24 152 -43
205 -63 205 -76 0 -10 3 -11 14 -2 11 9 17 8 29 -3 8 -8 23 -12 36 -9 13 3 23
0 26 -9 4 -10 15 -13 31 -10 18 3 24 0 24 -12 0 -10 5 -14 11 -10 11 6 75 -9
189 -47 30 -9 101 -32 158 -49 56 -18 102 -37 102 -42 0 -6 9 -8 21 -5 24 7
51 -1 44 -13 -3 -4 10 -7 28 -6 18 0 31 -4 30 -10 -1 -6 10 -9 28 -6 22 3 29
0 29 -13 0 -13 6 -16 25 -11 30 8 108 -11 100 -24 -3 -4 3 -6 14 -3 26 7 107
-23 103 -38 -2 -9 0 -10 10 -2 14 12 68 6 68 -7 0 -5 9 -6 20 -3 12 3 22 0 25
-9 4 -10 16 -13 35 -10 20 3 32 -1 35 -10 4 -9 17 -13 39 -10 19 2 37 -1 40
-7 4 -6 16 -11 27 -11 10 0 19 -7 19 -15 0 -8 5 -15 10 -15 6 0 10 5 10 10 0
15 37 12 52 -3 7 -8 21 -12 31 -9 10 3 28 0 40 -6 12 -6 31 -13 42 -15 11 -2
19 -10 17 -18 -3 -10 0 -11 8 -3 15 15 60 5 60 -13 0 -13 3 -13 15 -3 12 10
21 10 41 1 14 -6 36 -11 49 -11 13 0 26 -4 29 -9 3 -5 20 -11 38 -14 73 -11
248 -59 248 -69 0 -5 9 -7 19 -3 25 8 111 -14 118 -31 3 -8 16 -11 39 -7 27 4
34 2 34 -11 0 -18 11 -21 25 -7 12 11 198 -34 203 -49 2 -6 17 -8 39 -4 19 4
44 2 56 -4 12 -5 60 -18 106 -28 46 -11 89 -24 96 -30 6 -7 29 -11 51 -10 22
0 38 -3 37 -9 -1 -7 12 -9 33 -7 24 3 35 0 40 -12 7 -18 34 -22 34 -5 0 11 40
2 50 -10 3 -4 21 -7 40 -7 19 1 34 -4 33 -10 -1 -6 17 -10 45 -10 26 1 46 -3
45 -9 -1 -6 17 -9 43 -6 36 2 44 0 44 -14 0 -13 3 -15 13 -7 14 12 70 6 75 -7
1 -5 14 -6 28 -3 14 2 35 0 47 -6 19 -8 107 -27 407 -83 25 -5 90 -17 145 -27
55 -10 99 -22 98 -28 -1 -5 23 -9 53 -9 38 0 58 -5 64 -15 7 -11 10 -12 10 -2
0 16 61 7 71 -11 4 -5 12 -6 18 -2 15 9 93 -4 86 -15 -2 -4 16 -5 40 -2 35 3
45 1 45 -10 0 -12 11 -14 55 -10 46 4 55 2 55 -12 0 -17 15 -22 25 -7 5 10 76
3 85 -8 3 -3 25 -6 49 -7 25 0 46 -5 49 -12 2 -8 18 -9 48 -5 34 4 45 2 49
-10 5 -12 18 -14 66 -10 52 5 59 4 59 -12 0 -13 3 -15 13 -7 14 12 97 4 97 -9
0 -5 25 -6 55 -4 41 4 57 1 61 -9 4 -9 19 -12 54 -8 39 3 51 1 56 -11 5 -13
16 -15 56 -10 43 5 53 3 65 -13 10 -14 17 -16 31 -8 23 15 92 6 92 -12 0 -8 9
-14 20 -14 11 0 20 5 20 10 0 14 47 13 73 -2 12 -6 50 -12 85 -13 39 0 66 -5
71 -13 4 -7 15 -10 24 -6 24 9 129 -5 122 -17 -4 -5 -2 -9 4 -9 5 0 11 4 13 9
2 6 95 -2 228 -18 124 -16 297 -36 385 -46 88 -9 232 -25 320 -35 88 -10 163
-16 168 -13 4 2 7 1 7 -4 0 -4 37 -9 81 -9 45 -1 84 -6 88 -10 3 -5 46 -9 94
-10 49 0 92 -4 95 -10 4 -5 51 -9 105 -9 73 0 100 -4 106 -14 6 -9 15 -11 27
-6 22 9 167 6 174 -3 3 -4 59 -7 125 -8 65 -1 120 -5 122 -10 2 -5 57 -9 124
-8 85 0 122 -3 126 -12 3 -8 39 -10 135 -6 117 4 132 3 144 -12 9 -14 24 -17
61 -14 26 2 53 6 58 8 6 3 58 4 118 2 85 -3 107 -6 107 -18 0 -11 16 -14 68
-14 37 0 73 5 79 11 13 13 253 1 253 -13 0 -6 111 -6 285 -2 268 7 285 6 291
-11 7 -17 33 -17 531 -10 287 4 523 3 523 -2 0 -4 133 -7 297 -5 260 2 298 5
308 19 11 14 40 15 290 9 200 -5 280 -4 285 4 9 15 236 25 245 11 10 -17 145
-14 145 3 0 10 30 14 133 18 72 3 136 2 142 -3 5 -5 24 -9 42 -9 24 0 33 5 33
16 0 15 15 16 145 12 123 -4 145 -3 145 10 0 12 20 14 125 10 73 -2 126 0 128
6 2 5 53 9 115 10 62 1 112 4 112 7 0 12 173 17 191 6 15 -9 21 -8 32 7 12 16
25 18 110 14 63 -2 95 0 94 7 -1 6 33 10 95 10 54 0 98 3 98 7 0 6 53 13 180
22 30 3 108 10 173 16 65 7 129 10 142 8 13 -3 26 -1 27 3 2 5 71 15 153 24
83 9 258 29 390 45 132 17 276 31 320 33 44 1 83 6 87 12 4 5 38 10 76 11 37
1 78 6 90 13 26 14 82 15 82 1 0 -5 9 -10 20 -10 11 0 20 7 20 15 0 8 3 15 8
16 4 0 22 2 40 3 18 2 35 0 38 -5 9 -16 44 -10 44 7 0 14 10 16 59 12 39 -3
59 0 58 6 -1 7 21 11 58 10 43 -1 63 3 71 14 8 12 23 14 63 9 28 -3 51 -2 51
2 0 13 63 22 74 11 15 -15 26 -12 26 6 0 14 10 16 60 12 45 -3 61 -1 65 10 4
11 17 13 56 9 29 -4 47 -2 44 3 -6 10 2 12 110 29 44 6 73 7 79 1 14 -14 26
-12 24 2 -2 9 13 13 50 13 37 0 52 4 52 14 0 10 13 12 55 9 30 -3 52 -1 49 4
-3 4 -3 8 1 8 16 0 429 74 484 86 35 8 70 13 78 10 8 -3 23 -2 32 4 10 5 43
14 72 19 79 13 327 61 493 95 43 8 83 13 87 10 5 -3 9 0 9 7 0 8 14 10 44 7
33 -4 46 -2 50 9 4 9 16 13 33 11 16 -2 33 3 38 10 6 8 39 13 87 15 51 1 79 6
83 15 2 6 18 12 34 12 16 0 33 4 36 10 3 5 24 10 45 10 21 0 42 5 45 10 8 13
65 13 65 0 0 -5 5 -10 10 -10 6 0 10 6 10 14 0 16 37 28 46 15 9 -15 24 -10
24 7 0 14 8 16 45 12 36 -4 45 -2 45 10 0 11 8 13 35 9 19 -3 35 -2 35 3 0 10
31 19 135 40 33 6 68 16 77 21 10 5 27 9 39 9 12 0 38 4 58 10 20 5 122 30
226 55 215 52 259 63 297 77 14 5 51 10 82 11 37 1 56 6 56 15 0 7 14 12 35
12 19 0 35 5 35 10 0 6 15 10 33 10 18 0 39 6 45 12 10 10 17 10 31 1 15 -10
20 -9 25 2 3 8 14 15 25 15 11 0 23 5 26 10 3 6 19 10 35 10 16 0 32 4 35 10
3 5 20 10 36 10 17 0 40 5 51 11 14 8 23 8 31 0 15 -15 27 -14 27 4 0 8 9 15
19 15 11 0 23 4 26 10 3 5 21 10 40 10 19 0 37 5 41 11 3 6 19 9 35 7 16 -3
29 -1 29 2 0 13 87 32 109 25 14 -4 21 -2 19 5 -2 7 15 18 37 25 132 41 237
67 259 63 14 -3 24 -1 23 5 -2 12 59 35 95 36 15 1 30 6 33 11 3 6 17 10 30
10 13 0 27 5 30 10 3 6 15 10 27 10 20 0 104 25 145 43 12 5 31 7 42 4 11 -3
22 1 25 8 3 8 25 17 51 20 25 4 48 11 51 16 3 5 16 9 30 9 13 0 24 5 24 11 0
7 14 10 35 7 22 -2 36 1 39 9 7 17 33 17 39 1 4 -9 6 -8 6 3 1 10 19 20 52 29
27 8 52 18 55 22 3 4 20 8 38 8 18 0 36 3 39 6 10 10 109 43 130 44 9 0 17 5
17 10 0 6 10 10 23 10 13 0 28 5 35 12 7 7 12 9 12 5 0 -4 24 2 53 12 76 27
188 63 203 65 7 1 17 5 20 9 4 4 18 7 31 7 13 0 23 5 23 10 0 6 11 10 24 10
14 0 27 4 30 9 4 5 25 12 49 16 23 4 60 16 82 26 22 10 65 25 95 34 30 9 63
21 72 26 10 5 26 9 36 9 10 0 22 3 26 7 17 17 80 32 93 21 10 -8 13 -7 13 5 0
8 15 20 33 27 17 6 40 16 49 21 10 5 27 9 37 9 11 0 22 4 26 9 3 6 26 13 50
17 25 3 45 10 45 14 0 5 37 20 83 35 45 15 96 33 112 40 17 7 66 25 110 40 44
15 85 31 90 35 6 3 30 12 55 19 25 7 59 19 75 26 17 7 53 21 80 31 28 9 54 21
60 26 5 4 17 8 27 8 9 0 32 8 51 19 18 10 48 22 67 26 19 4 49 16 67 26 19 11
42 19 53 19 10 0 21 4 24 9 3 5 18 12 33 16 15 3 45 15 67 26 22 10 45 19 52
19 7 0 25 7 41 15 15 8 44 21 63 29 156 65 163 68 171 54 7 -10 9 -9 9 4 0 18
62 44 80 33 6 -4 9 -1 8 6 -2 6 17 19 42 29 25 9 57 22 73 28 15 7 39 17 55
22 57 22 82 35 82 42 0 5 8 8 18 8 11 0 33 7 51 16 18 9 41 14 52 11 10 -3 19
0 19 6 0 15 96 61 109 53 5 -3 11 -3 13 2 4 9 86 49 188 92 41 17 103 45 138
61 35 16 66 29 70 29 4 0 38 16 76 35 39 19 75 35 81 35 6 0 55 23 108 50 53
28 106 50 116 50 11 0 21 3 23 8 3 7 194 102 206 102 4 0 88 41 187 90 99 49
183 90 187 90 9 0 121 52 128 60 3 3 34 19 70 35 36 17 67 33 68 38 2 4 8 7
14 7 10 0 258 120 268 130 7 7 59 34 230 121 80 40 172 89 205 107 33 19 101
55 150 80 50 26 92 49 95 53 7 10 166 89 179 89 6 0 11 4 11 9 0 5 32 25 70
45 39 19 82 43 98 54 28 19 91 50 105 51 4 0 17 10 29 21 12 11 28 20 35 20 7
0 13 3 13 8 0 4 17 15 38 25 20 10 61 31 90 47 28 16 52 26 52 22 0 -3 6 3 14
14 8 10 30 26 50 34 20 7 36 17 36 21 0 8 87 52 105 53 6 1 15 8 22 17 7 9 27
22 45 30 18 7 37 19 41 26 4 7 12 13 17 13 10 0 89 45 154 89 44 29 67 42 116
67 19 10 49 28 66 41 17 13 35 23 39 23 5 0 17 7 27 17 19 17 40 30 98 59 19
10 43 26 54 36 10 9 43 30 72 45 30 15 54 31 54 36 0 4 6 7 14 7 7 0 19 7 26
15 7 8 32 25 56 37 24 12 44 25 44 30 0 4 5 8 10 8 6 0 33 16 60 35 27 19 54
35 60 35 5 0 10 3 10 8 0 4 17 16 38 27 20 11 58 34 84 52 26 18 52 33 57 33
5 0 11 7 15 15 3 8 12 15 19 15 8 0 21 7 28 16 7 9 20 19 29 23 8 3 75 47 149
96 180 121 184 124 201 131 8 4 27 18 42 32 15 13 36 30 47 36 11 6 48 30 81
54 33 23 63 42 66 42 4 0 23 14 43 30 56 48 60 50 69 50 5 0 19 11 32 25 13
14 28 25 33 25 9 0 52 32 94 70 12 11 25 20 27 20 3 0 25 14 48 30 24 17 54
38 68 48 14 9 31 23 39 30 7 7 20 11 27 8 8 -3 14 1 14 8 0 15 32 46 48 46 6
0 24 14 41 31 17 17 35 28 39 25 5 -3 15 6 22 19 7 14 22 28 33 31 11 4 31 17
44 30 13 13 28 24 33 24 5 0 20 10 34 22 13 13 35 31 48 40 32 24 107 82 144
112 18 15 36 26 41 26 5 0 24 16 43 35 19 19 38 35 43 35 5 0 34 21 65 48 31
26 61 50 67 54 5 4 28 22 50 40 22 19 52 41 66 50 15 10 54 42 87 73 33 30 64
55 69 55 5 0 24 16 43 35 19 19 39 35 45 35 6 0 26 16 45 35 19 19 39 35 45
35 6 0 27 18 46 40 19 22 39 40 44 40 6 0 31 20 55 45 24 25 49 45 55 45 6 0
29 18 50 40 21 22 43 40 48 40 5 0 33 24 64 53 30 28 60 54 66 56 6 2 29 24
51 48 21 23 44 43 50 43 6 0 41 29 76 65 35 36 69 65 75 65 6 0 40 29 75 65
35 36 69 65 75 65 5 0 43 36 84 80 40 44 77 77 82 75 4 -3 52 40 106 96 93 96
146 137 168 130 6 -1 6 1 2 5 -8 8 281 304 297 304 5 0 92 83 194 185 102 102
190 185 194 185 4 0 8 4 8 9 0 5 38 47 85 94 47 47 85 89 85 93 0 16 276 284
292 284 13 0 18 8 18 27 0 20 22 49 92 119 51 51 99 95 108 97 9 2 16 15 17
28 1 15 27 48 73 90 38 36 70 70 70 75 0 5 27 36 60 69 33 33 60 64 60 70 0 6
27 37 60 70 33 33 60 64 60 71 0 6 23 31 50 56 28 25 50 50 50 55 0 5 23 31
50 58 28 27 50 54 50 60 0 6 20 31 45 55 25 24 45 49 45 55 0 6 16 26 35 45
19 19 35 37 35 41 0 3 19 27 43 52 62 67 107 123 107 134 0 5 16 24 35 43 19
19 35 40 35 46 0 7 6 17 13 21 18 12 107 120 107 130 0 5 16 24 35 43 19 19
35 39 35 45 0 6 11 22 25 35 14 13 25 27 25 32 0 4 14 21 30 36 17 16 30 34
30 39 0 5 11 20 25 33 14 13 25 29 25 35 0 6 14 24 30 40 17 16 30 34 30 41 0
7 11 21 25 32 14 11 25 24 25 29 0 5 11 20 25 33 14 13 25 27 25 32 0 11 36
64 71 103 36 41 99 133 99 144 0 5 11 18 25 29 14 11 25 27 25 35 0 9 6 20 13
24 12 8 17 14 84 113 21 30 41 56 45 58 5 2 8 9 8 16 0 7 12 23 26 37 14 13
30 33 35 44 10 22 31 57 39 65 17 16 60 80 60 88 0 5 7 16 16 23 9 7 20 22 25
34 10 23 31 58 40 65 3 3 28 39 55 80 26 41 52 77 56 78 5 2 8 9 8 17 0 7 7
18 15 25 9 7 25 32 36 54 30 61 46 88 56 95 6 3 29 39 52 80 24 40 52 82 62
92 10 10 19 24 19 29 0 14 22 51 40 70 17 18 59 87 67 112 3 10 9 18 14 18 4
0 17 19 28 43 28 56 70 130 79 137 7 5 37 57 68 120 10 19 20 37 23 40 9 8 29
41 50 85 11 22 34 60 51 85 16 25 30 50 30 57 0 6 3 13 8 15 4 2 18 26 32 53
14 28 27 52 30 55 9 9 28 43 57 100 15 30 40 78 56 105 17 28 58 104 92 170
35 66 80 152 101 190 20 39 51 97 67 130 16 33 75 155 132 270 130 265 228
468 251 520 9 22 30 68 46 101 15 34 28 65 28 69 0 5 13 35 30 69 16 34 45 99
65 146 20 47 45 103 55 125 42 93 50 114 50 133 0 11 3 22 8 24 10 4 50 87 58
121 3 15 10 30 15 33 5 3 9 14 9 24 0 11 9 35 20 55 11 19 20 38 19 43 0 6 14
42 47 119 8 17 14 38 14 46 0 9 4 19 10 22 5 3 17 32 26 63 9 31 21 66 28 77
7 11 18 40 25 65 8 25 22 63 32 85 10 22 21 54 25 70 4 17 16 45 26 63 10 18
18 41 18 52 0 10 4 21 9 24 5 4 12 24 16 46 4 22 11 42 16 46 5 3 9 13 9 23 0
10 7 32 15 47 8 16 15 37 15 46 0 9 5 20 10 23 6 3 10 15 10 26 0 10 4 27 9
37 14 27 26 61 55 152 15 47 31 94 35 105 7 16 54 163 91 285 4 14 11 33 15
43 14 35 -11 15 -60 -46 -55 -69 -688 -707 -702 -707 -4 0 -62 -54 -128 -120
-66 -66 -124 -120 -130 -120 -6 0 -53 -43 -105 -95 -52 -52 -98 -95 -103 -95
-5 0 -34 -24 -65 -54 -100 -95 -159 -146 -168 -146 -5 0 -36 -27 -69 -60 -33
-33 -64 -60 -69 -60 -8 0 -39 -27 -157 -136 -20 -19 -40 -34 -44 -34 -4 0 -29
-19 -56 -43 -26 -23 -69 -59 -96 -80 -72 -56 -112 -88 -158 -127 -23 -19 -61
-48 -85 -65 -24 -16 -59 -45 -78 -62 -19 -18 -38 -33 -43 -33 -5 0 -19 -11
-31 -25 -12 -14 -27 -25 -33 -25 -6 0 -22 -11 -35 -25 -13 -14 -29 -25 -37
-25 -7 0 -13 -3 -13 -7 0 -5 -16 -19 -35 -32 -19 -13 -47 -34 -62 -47 -20 -17
-29 -20 -35 -11 -5 9 -8 7 -8 -4 0 -8 -11 -26 -26 -39 -21 -21 -27 -22 -34
-10 -8 13 -10 13 -10 -1 0 -15 -39 -59 -52 -59 -4 0 -9 8 -11 18 -3 11 -5 9
-6 -8 -1 -30 -55 -70 -64 -48 -3 7 -6 3 -6 -9 -1 -12 -13 -29 -30 -40 -57 -35
-146 -97 -151 -104 -3 -4 -30 -24 -60 -45 -30 -21 -59 -41 -65 -46 -5 -4 -24
-19 -41 -33 -18 -14 -35 -25 -38 -25 -3 0 -29 -16 -56 -35 -27 -19 -54 -35
-60 -35 -5 0 -10 -4 -10 -8 0 -4 -51 -41 -112 -82 -62 -41 -114 -78 -116 -82
-2 -5 -9 -8 -16 -8 -7 0 -21 -9 -31 -20 -10 -11 -22 -20 -27 -20 -4 0 -39 -22
-78 -50 -39 -27 -74 -50 -78 -50 -5 0 -17 -9 -27 -20 -10 -11 -24 -20 -31 -20
-7 0 -14 -3 -16 -8 -6 -15 -103 -73 -118 -70 -8 2 -20 -6 -26 -17 -5 -11 -18
-19 -27 -19 -9 1 -17 -4 -17 -11 0 -18 -32 -28 -42 -13 -5 9 -8 6 -8 -8 0 -15
-13 -29 -41 -43 -23 -12 -48 -28 -56 -36 -8 -8 -21 -15 -29 -15 -8 0 -14 -4
-14 -9 0 -5 -13 -14 -29 -21 -16 -6 -37 -19 -48 -28 -24 -21 -49 -37 -93 -59
-19 -9 -49 -27 -66 -40 -17 -13 -35 -23 -39 -23 -5 0 -17 -7 -27 -17 -19 -17
-40 -30 -98 -59 -19 -10 -41 -24 -48 -31 -8 -8 -28 -20 -45 -28 -43 -21 -89
-48 -104 -62 -7 -7 -43 -26 -78 -44 -36 -17 -65 -36 -65 -40 0 -5 -5 -9 -10
-9 -6 0 -34 -15 -63 -33 -58 -37 -119 -67 -136 -67 -6 0 -11 -4 -11 -10 0 -5
-28 -24 -62 -41 -35 -17 -65 -35 -68 -40 -3 -4 -28 -18 -55 -31 -28 -13 -68
-35 -90 -49 -22 -14 -60 -35 -85 -48 -25 -12 -67 -35 -95 -51 -74 -43 -136
-71 -146 -64 -5 3 -9 -1 -9 -9 0 -14 -192 -117 -218 -117 -7 0 -12 -4 -12 -10
0 -5 -7 -10 -15 -10 -7 0 -18 -6 -22 -13 -8 -13 -232 -127 -251 -127 -5 0 -12
-4 -14 -8 -4 -10 -301 -158 -310 -154 -5 1 -8 -3 -8 -9 0 -6 -9 -9 -20 -6 -11
3 -20 0 -20 -6 -1 -14 -468 -247 -493 -247 -9 0 -17 -3 -17 -7 0 -11 -51 -33
-61 -27 -5 3 -9 0 -9 -7 0 -6 -8 -9 -20 -6 -11 3 -20 0 -20 -6 -1 -15 -162
-93 -182 -89 -5 1 -8 -2 -8 -8 0 -5 -7 -10 -16 -10 -9 0 -28 -8 -42 -18 -15
-10 -47 -26 -72 -36 -25 -11 -78 -34 -117 -52 -40 -19 -76 -34 -81 -34 -5 0
-48 -20 -96 -45 -49 -25 -97 -45 -107 -45 -11 0 -19 -4 -19 -10 0 -5 -8 -10
-18 -10 -10 0 -22 -4 -27 -8 -6 -5 -41 -21 -80 -37 -38 -15 -102 -43 -142 -62
-39 -18 -76 -33 -81 -33 -6 0 -27 -9 -49 -19 -76 -38 -154 -71 -166 -71 -7 0
-17 -4 -22 -8 -6 -5 -26 -15 -45 -22 -19 -7 -60 -24 -90 -37 -130 -59 -222
-93 -232 -87 -5 4 -15 -2 -23 -12 -9 -13 -26 -19 -53 -19 -22 0 -40 -4 -39 -9
3 -14 -46 -36 -65 -30 -10 3 -18 0 -18 -6 0 -6 -12 -15 -27 -21 -15 -6 -41
-16 -58 -23 -16 -7 -50 -21 -75 -31 -25 -9 -62 -26 -83 -36 -22 -11 -47 -19
-56 -19 -9 0 -22 -5 -29 -12 -8 -8 -15 -8 -28 3 -10 8 -15 9 -11 2 8 -13 -59
-50 -70 -39 -3 3 -11 0 -17 -8 -14 -18 -113 -49 -131 -42 -9 3 -15 0 -15 -8 0
-8 -8 -16 -17 -19 -10 -3 -47 -17 -83 -30 -36 -13 -94 -34 -130 -47 -36 -12
-69 -26 -75 -30 -5 -3 -30 -12 -55 -19 -47 -14 -83 -27 -112 -42 -10 -5 -25
-9 -33 -9 -8 0 -23 -4 -33 -9 -30 -16 -66 -29 -107 -41 -22 -7 -56 -19 -75
-27 -67 -28 -75 -32 -135 -49 -33 -9 -64 -21 -69 -26 -6 -4 -18 -8 -28 -8 -10
0 -26 -4 -36 -9 -34 -19 -121 -41 -136 -35 -11 4 -16 0 -16 -11 0 -13 -6 -16
-22 -12 -14 4 -26 0 -34 -11 -8 -11 -27 -17 -58 -17 -32 0 -46 -4 -46 -14 0
-9 -8 -12 -24 -9 -15 3 -27 0 -30 -7 -4 -12 -102 -50 -156 -61 -14 -3 -34 -9
-45 -13 -92 -37 -149 -50 -162 -40 -10 9 -12 9 -8 -2 4 -11 -15 -21 -72 -38
-43 -13 -87 -27 -98 -31 -11 -4 -60 -20 -110 -35 -49 -14 -98 -31 -107 -36
-10 -5 -27 -9 -39 -9 -11 0 -29 -5 -40 -11 -15 -8 -24 -7 -35 2 -12 10 -15 10
-12 0 2 -8 -16 -20 -42 -29 -25 -8 -55 -19 -67 -25 -12 -5 -31 -7 -42 -4 -12
3 -22 -1 -25 -10 -4 -10 -14 -13 -31 -9 -14 4 -25 3 -25 -2 0 -11 -61 -32 -93
-32 -15 0 -27 -4 -27 -9 0 -5 -12 -11 -27 -14 -34 -6 -170 -46 -198 -57 -11
-5 -31 -11 -45 -13 -14 -3 -81 -21 -150 -42 -122 -35 -269 -76 -420 -116 -41
-11 -83 -18 -93 -15 -9 2 -15 0 -12 -5 3 -4 -7 -11 -22 -14 -15 -4 -38 -11
-50 -17 -11 -6 -46 -11 -76 -12 -30 0 -55 -5 -54 -10 1 -6 -7 -11 -18 -13 -11
-2 -29 -8 -40 -13 -11 -5 -33 -11 -50 -15 -85 -18 -142 -32 -158 -39 -9 -5
-28 -5 -41 -2 -17 4 -26 1 -30 -10 -5 -12 -14 -15 -35 -11 -20 4 -31 2 -35 -8
-3 -9 -16 -12 -35 -10 -18 2 -31 -1 -31 -7 0 -6 -14 -9 -35 -6 -25 3 -35 0
-35 -10 0 -10 -10 -13 -35 -10 -23 3 -36 -1 -40 -10 -3 -10 -16 -13 -39 -10
-19 2 -32 0 -30 -4 3 -4 -8 -10 -23 -14 -15 -3 -50 -12 -78 -19 -95 -24 -174
-37 -190 -31 -9 3 -13 2 -10 -4 7 -12 -39 -24 -60 -16 -9 3 -14 2 -11 -3 7
-11 -108 -36 -123 -27 -6 4 -17 1 -25 -6 -7 -8 -60 -24 -117 -36 -101 -22
-128 -28 -217 -52 -31 -8 -47 -8 -57 0 -9 8 -14 6 -19 -6 -5 -12 -16 -15 -45
-12 -22 2 -37 0 -35 -3 5 -9 -22 -19 -51 -19 -13 0 -36 -5 -50 -12 -21 -9 -31
-9 -46 0 -15 10 -19 9 -19 -2 0 -16 -63 -31 -68 -16 -5 14 -22 12 -20 -2 2 -9
-9 -13 -34 -12 -27 1 -38 -3 -38 -13 0 -12 -10 -14 -40 -11 -27 2 -41 -1 -45
-10 -4 -10 -18 -13 -45 -10 -22 2 -40 1 -40 -3 0 -3 -33 -11 -72 -18 -40 -7
-82 -17 -93 -21 -26 -11 -100 -22 -145 -23 -19 0 -37 -3 -40 -7 -9 -13 -59
-20 -65 -10 -10 16 -25 11 -18 -6 5 -14 -2 -16 -50 -13 -42 3 -58 0 -62 -10
-4 -9 -17 -12 -43 -9 -25 4 -42 1 -51 -9 -8 -9 -26 -13 -47 -11 -18 2 -31 1
-28 -3 5 -9 -83 -22 -96 -14 -5 3 -10 2 -10 -3 0 -5 -44 -16 -97 -26 -54 -9
-177 -30 -273 -47 -342 -59 -415 -70 -441 -67 -14 2 -31 -2 -39 -10 -9 -10
-27 -13 -56 -9 -30 3 -47 0 -55 -9 -13 -16 -99 -19 -99 -4 0 6 -4 10 -10 10
-5 0 -10 -6 -10 -14 0 -17 -65 -27 -80 -12 -7 7 -14 4 -23 -9 -12 -15 -23 -17
-65 -12 -40 5 -51 3 -56 -10 -5 -13 -17 -15 -59 -10 -36 3 -58 1 -72 -9 -22
-16 -71 -19 -80 -4 -9 15 -35 12 -35 -4 0 -15 -58 -28 -66 -14 -10 15 -54 9
-54 -8 0 -14 -9 -16 -59 -11 -48 4 -61 2 -65 -10 -5 -12 -18 -14 -61 -11 -30
3 -56 0 -58 -5 -1 -5 -32 -10 -67 -11 -36 0 -67 -4 -70 -8 -7 -9 -88 -14 -96
-5 -14 13 -44 7 -44 -9 0 -14 -10 -16 -64 -12 -36 2 -63 1 -60 -3 6 -10 -102
-23 -123 -15 -9 4 -20 1 -24 -5 -4 -7 -34 -12 -73 -13 -36 -1 -66 -4 -66 -7 0
-12 -135 -18 -142 -6 -6 9 -11 8 -18 -3 -7 -11 -28 -15 -77 -15 -37 0 -70 -3
-73 -7 -6 -7 -62 -14 -550 -63 -339 -34 -789 -67 -824 -61 -16 4 -34 2 -40 -3
-20 -16 -233 -26 -251 -11 -8 7 -15 8 -15 3 0 -12 -55 -20 -182 -29 -59 -3
-88 -2 -88 5 0 15 -67 14 -73 -1 -3 -10 -50 -13 -195 -11 -164 1 -191 -1 -196
-14 -6 -13 -33 -14 -225 -8 -195 6 -219 6 -224 -9 -5 -14 -28 -16 -157 -16
-82 0 -150 3 -150 8 0 4 -94 6 -210 4 -126 -2 -210 -7 -210 -12 0 -6 -190 -10
-510 -10 -378 0 -510 3 -510 12 0 8 -88 9 -348 4 -318 -7 -350 -6 -362 9 -13
15 -35 16 -222 10 -187 -7 -208 -6 -208 9 0 14 -21 15 -182 13 -138 -1 -182 1
-185 11 -6 15 -83 16 -83 1 0 -11 -27 -10 -195 8 -51 6 -56 8 -30 14 l30 7
-32 1 c-17 0 -35 -4 -39 -10 -5 -8 -38 -10 -112 -5 -58 4 -109 9 -113 11 -4 3
-56 7 -115 10 -59 2 -110 8 -113 12 -3 4 -44 8 -91 8 -97 0 -174 7 -490 40
-124 14 -252 27 -285 30 -32 4 -63 9 -67 11 -4 3 -42 6 -84 8 -42 2 -79 7 -82
12 -4 5 -34 9 -66 9 -38 1 -61 5 -64 13 -4 14 -29 16 -34 3 -2 -6 -21 -6 -48
0 -25 5 -76 11 -115 13 -38 2 -71 8 -73 14 -2 7 -15 9 -32 5 -34 -6 -103 5
-96 16 3 4 -26 6 -64 4 -56 -2 -71 1 -79 14 -7 13 -13 14 -23 7 -16 -13 -191
10 -196 25 -2 6 -25 7 -54 4 -39 -5 -54 -3 -62 9 -7 10 -27 14 -61 14 -34 -1
-49 3 -48 11 2 9 -14 11 -62 6 -56 -5 -65 -4 -65 11 0 9 -4 16 -10 16 -5 0
-10 -5 -10 -10 0 -13 -73 -2 -78 11 -2 5 -23 6 -48 2 -34 -4 -45 -2 -50 10 -4
13 -16 15 -55 10 -38 -5 -50 -3 -55 10 -4 12 -14 14 -41 10 -28 -5 -39 -2 -49
12 -11 15 -16 16 -28 6 -16 -13 -71 -7 -81 9 -3 4 -22 6 -43 3 -27 -4 -43 0
-54 10 -9 9 -18 13 -22 10 -9 -9 -156 19 -170 33 -10 9 -16 10 -24 2 -8 -8
-22 -8 -49 0 -21 6 -55 14 -75 17 -21 3 -38 9 -38 13 0 4 -17 8 -37 8 -54 2
-125 15 -148 27 -11 6 -30 10 -42 8 -12 -1 -32 3 -44 9 -12 7 -41 13 -64 15
-23 1 -60 8 -81 16 -22 7 -46 13 -54 14 -8 1 -23 2 -33 3 -10 1 -16 5 -13 10
2 4 -13 6 -35 4 -27 -3 -40 0 -44 10 -4 10 -16 13 -35 10 -21 -3 -32 1 -36 12
-4 11 -10 13 -18 7 -12 -10 -76 -3 -76 8 0 4 -14 8 -32 8 -18 0 -34 5 -36 11
-2 7 -15 9 -33 5 -21 -4 -30 -1 -35 10 -4 11 -14 14 -40 10 -27 -4 -34 -2 -34
11 0 17 -15 22 -24 7 -4 -5 -32 -3 -69 6 -34 8 -79 19 -99 24 -21 5 -55 13
-75 18 -21 6 -67 17 -103 26 -36 9 -80 19 -98 22 -19 3 -36 11 -39 19 -2 7
-10 11 -16 8 -12 -4 -150 29 -337 81 -52 15 -124 35 -160 44 -35 10 -66 23
-68 30 -2 6 -8 8 -13 5 -16 -9 -109 17 -109 30 0 8 -11 11 -30 8 -19 -3 -30 0
-30 7 0 7 -4 10 -10 6 -14 -9 -61 6 -54 17 4 6 -1 8 -13 4 -22 -7 -55 2 -49
13 3 4 -8 7 -22 6 -16 0 -26 5 -25 12 2 8 -8 10 -32 6 -25 -4 -36 -2 -40 9 -4
10 -15 13 -31 10 -13 -2 -24 0 -24 7 0 5 -7 8 -16 4 -10 -4 -22 0 -28 9 -6 8
-22 15 -36 14 -15 -1 -24 4 -23 11 2 9 -6 11 -27 6 -25 -4 -30 -2 -30 13 0 13
-3 15 -11 7 -11 -11 -85 2 -104 18 -5 5 -17 9 -27 9 -10 0 -26 4 -36 9 -9 5
-55 21 -102 36 -47 14 -94 30 -105 35 -11 4 -45 16 -75 25 -83 25 -130 47
-123 58 4 6 -1 8 -11 4 -22 -9 -96 14 -96 29 0 7 -9 10 -21 7 -14 -4 -25 0
-31 12 -8 14 -12 15 -19 4 -6 -11 -11 -11 -21 -1 -6 6 -20 12 -30 12 -9 0 -21
6 -25 13 -4 6 -17 12 -28 12 -12 0 -19 6 -17 14 2 9 -3 11 -13 7 -22 -8 -125
22 -131 39 -3 7 -14 11 -25 8 -12 -3 -21 1 -25 11 -4 11 -13 15 -25 11 -13 -4
-19 -1 -19 8 0 10 -7 13 -21 10 -14 -4 -25 0 -31 12 -8 13 -12 14 -18 5 -6 -9
-15 -8 -39 4 -17 9 -31 21 -31 27 0 6 -7 8 -16 5 -22 -8 -74 15 -74 33 0 11
-3 11 -15 1 -12 -10 -19 -10 -27 -2 -7 7 -20 12 -29 12 -9 0 -34 8 -56 19 -21
10 -65 30 -98 44 -33 14 -76 32 -97 41 -20 9 -39 16 -42 16 -3 0 -25 9 -49 19
-23 10 -57 25 -74 32 -18 8 -33 17 -33 20 0 4 -15 10 -34 13 -50 10 -128 52
-143 78 -10 18 -12 19 -13 6 0 -23 -1 -23 -58 6 -26 13 -58 27 -72 31 -26 7
-106 44 -317 146 -67 33 -128 59 -136 59 -9 0 -17 4 -19 8 -1 4 -30 20 -63 36
-142 67 -190 91 -193 99 -2 4 -12 7 -23 7 -10 0 -19 5 -19 10 0 6 -5 10 -11
10 -12 0 -265 125 -284 140 -5 5 -53 30 -105 57 -121 62 -193 104 -202 118 -4
5 -8 7 -8 3 0 -4 -19 4 -42 17 -24 14 -77 43 -118 65 -41 22 -84 46 -95 53
-57 36 -124 75 -155 91 -40 20 -53 27 -138 79 -34 22 -62 46 -63 55 0 10 -3
12 -5 5 -9 -21 -84 25 -84 51 0 14 -3 17 -8 8 -11 -16 -42 -5 -42 15 0 8 -4
12 -9 8 -13 -8 -81 34 -81 50 0 8 -5 17 -12 21 -7 4 -8 3 -4 -4 4 -7 4 -12 -1
-12 -16 0 -30 16 -38 40 -7 21 -9 22 -14 8 -6 -17 -39 2 -250 144 -14 10 -33
21 -41 25 -8 3 -17 10 -20 13 -3 4 -39 29 -80 56 -41 27 -79 52 -85 57 -5 4
-31 22 -57 40 -109 74 -163 112 -168 117 -14 15 -80 60 -88 60 -5 0 -16 7 -23
16 -8 9 -30 27 -49 40 -89 60 -155 113 -153 123 2 6 -6 11 -18 11 -24 0 -44
17 -53 48 -6 16 -13 21 -26 17 -18 -6 -70 44 -70 68 0 7 -4 6 -9 -2 -12 -18
-34 -2 -54 38 -8 16 -19 25 -31 23 -21 -4 -56 25 -56 46 0 8 -6 12 -14 9 -8
-3 -28 6 -45 21 -16 15 -50 43 -74 62 -25 19 -48 46 -52 59 -5 20 -8 22 -15
11 -7 -12 -16 -8 -45 20 -19 18 -35 40 -35 47 0 7 -9 13 -20 13 -12 0 -36 15
-54 32 -19 18 -69 62 -112 98 -42 36 -112 97 -154 135 -42 39 -89 81 -105 94
-122 100 -642 613 -845 834 -240 261 -468 523 -479 550 -2 5 -21 25 -42 44
-22 20 -39 42 -39 50 0 7 -17 31 -37 52 -21 21 -51 55 -68 76 -16 21 -45 56
-63 76 -19 21 -35 45 -36 53 -1 8 -14 25 -29 36 -15 12 -27 28 -27 37 0 8 -11
24 -25 35 -14 11 -25 26 -25 33 0 8 -6 18 -13 22 -20 13 -97 114 -97 128 0 7
-7 15 -15 19 -8 3 -21 18 -28 33 -6 15 -23 39 -36 53 -13 14 -39 50 -59 80
-20 30 -46 69 -59 85 -13 17 -27 35 -31 40 -17 23 -248 372 -258 390 -9 17
-39 65 -112 180 -6 11 -20 36 -30 55 -9 19 -20 36 -24 38 -4 2 -15 20 -25 40
-9 20 -27 51 -39 67 -12 17 -25 40 -29 53 -3 12 -10 22 -13 22 -4 0 -16 20
-27 45 -11 25 -23 45 -27 45 -5 0 -8 6 -8 14 0 8 -3 16 -8 18 -4 2 -22 32 -41
68 -19 36 -40 72 -47 81 -8 8 -14 18 -14 21 0 3 -23 47 -51 99 -70 127 -171
326 -188 372 -8 20 -17 37 -20 37 -4 0 -12 15 -20 33 -23 55 -71 158 -116 252
-97 203 -115 242 -115 253 0 6 -8 26 -18 44 -11 18 -25 51 -32 73 -7 22 -21
54 -31 72 -10 17 -21 48 -25 67 -3 20 -10 36 -15 36 -5 0 -9 8 -9 18 0 10 -4
22 -8 27 -5 6 -15 26 -22 45 -7 19 -20 51 -28 70 -8 19 -18 45 -23 58 -5 12
-13 32 -18 45 -5 12 -17 45 -27 72 -10 28 -20 55 -24 60 -3 6 -13 30 -20 55
-8 25 -20 56 -27 70 -7 14 -13 31 -13 38 0 7 -5 20 -10 30 -10 18 -130 380
-170 512 -12 41 -26 85 -31 98 -5 13 -7 28 -4 33 4 5 1 9 -6 9 -7 0 -10 11 -7
30 2 16 0 31 -6 33 -6 3 -17 26 -24 53 -8 27 -18 59 -24 71 -6 11 -7 27 -3 33
4 7 3 15 -2 19 -6 3 -25 60 -43 126 -17 66 -35 129 -40 140 -7 18 -38 142 -61
240 -5 22 -16 69 -25 105 -8 36 -19 83 -24 105 -5 22 -16 72 -24 110 -9 39
-14 75 -12 82 3 6 1 13 -3 15 -11 4 -65 262 -66 313 0 22 -4 43 -9 47 -6 4
-10 24 -11 45 0 21 -4 44 -9 51 -4 8 -5 33 -1 58 5 34 3 44 -7 42 -9 -2 -13
11 -12 47 0 33 -4 54 -14 61 -11 8 -14 22 -10 52 4 26 2 42 -6 45 -7 2 -10 26
-10 60 1 32 -2 57 -6 57 -12 0 -18 74 -7 88 7 9 5 16 -5 25 -10 7 -18 35 -21
67 -4 30 -11 89 -16 130 -6 41 -20 161 -31 265 -11 105 -22 208 -25 230 -7 51
-21 250 -36 480 -14 222 -20 1341 -8 1560 29 524 33 570 49 560 6 -3 10 -1 10
4 0 6 -5 11 -10 11 -7 0 -9 22 -5 63 18 191 37 369 46 423 5 33 9 77 9 97 0
19 6 42 14 50 8 8 12 24 9 41 -6 30 16 216 26 216 3 0 6 23 6 52 0 31 5 53 12
55 9 3 11 18 7 47 -5 31 -2 47 9 58 11 11 14 27 10 56 -4 32 -2 43 10 48 13 4
15 16 10 55 -3 27 -2 49 3 49 5 0 9 21 9 47 0 25 5 48 10 50 6 2 9 21 7 43 -3
30 0 41 12 46 13 5 15 14 11 35 -8 34 2 72 17 63 7 -4 8 4 3 25 -7 31 37 278
56 313 5 10 9 26 9 37 0 18 17 94 40 181 19 75 73 287 81 320 4 19 12 51 18
70 6 19 17 62 25 95 9 33 20 61 26 63 5 2 10 17 10 33 0 16 4 29 9 29 4 0 6
11 4 24 -3 13 0 27 6 30 6 4 11 18 11 32 0 14 7 27 15 30 10 4 12 15 8 35 -3
19 -1 29 6 29 7 0 9 5 6 10 -3 6 3 36 14 68 10 31 40 125 66 207 71 230 91
285 135 380 10 22 26 63 35 90 19 56 33 92 46 117 5 10 9 23 9 29 0 11 22 67
41 101 5 10 9 25 9 33 0 8 7 15 16 15 8 0 12 5 9 10 -8 13 16 80 28 80 5 0 7
7 4 14 -7 17 20 76 33 76 5 0 7 6 4 13 -2 7 2 27 11 43 8 16 15 37 15 47 0 9
7 17 16 17 8 0 13 4 9 9 -6 11 32 113 47 122 5 3 9 9 8 13 -1 4 3 21 10 39 19
52 150 341 172 382 7 11 19 36 29 55 9 19 44 89 77 155 77 157 105 209 115
213 4 2 7 9 7 16 0 15 54 119 165 321 64 115 158 270 166 273 5 2 9 12 9 22 0
9 6 23 14 29 8 7 24 32 35 57 12 24 26 44 31 44 6 0 10 7 10 17 0 9 11 31 25
49 14 18 25 35 25 38 0 3 20 35 44 70 24 35 45 68 47 72 14 31 72 113 84 118
8 3 15 14 15 25 0 10 7 21 15 25 8 3 15 15 15 27 0 12 8 23 20 26 11 3 20 13
20 22 0 10 9 27 20 39 11 12 20 24 20 27 0 6 89 137 153 225 56 77 220 294
227 300 6 5 111 142 147 192 12 17 39 49 60 72 21 23 56 64 78 91 22 27 56 67
75 88 45 49 50 55 83 100 16 20 37 37 48 37 17 0 23 10 21 31 -1 4 8 15 18 24
11 10 20 22 20 26 0 17 84 99 102 99 11 0 16 5 13 10 -3 6 -1 10 6 10 7 0 10
3 6 6 -9 9 52 75 321 343 182 182 246 240 253 230 7 -11 9 -10 9 4 0 9 7 17
15 17 8 0 18 11 21 26 7 27 122 127 136 118 4 -3 8 0 8 5 0 6 7 11 15 11 13 0
19 12 16 32 0 4 25 28 57 53 31 25 73 60 92 78 20 18 55 48 79 67 24 19 64 53
90 75 25 22 91 74 146 115 55 41 102 78 105 81 6 6 193 147 227 169 11 8 51
36 87 62 36 26 72 45 79 42 8 -3 19 7 26 23 10 22 14 24 22 12 8 -11 12 -11
16 -1 15 37 122 115 146 106 8 -3 18 6 25 22 8 17 18 24 28 20 8 -3 17 1 20 9
3 8 58 47 123 87 64 40 126 79 136 86 11 6 36 20 55 30 19 9 36 20 38 24 2 4
19 15 39 24 30 15 36 15 44 3 7 -12 9 -12 10 1 1 8 1 18 0 23 0 4 8 7 19 7 11
0 20 4 20 9 0 11 103 69 138 78 12 3 22 8 22 12 0 9 42 32 230 126 276 139
330 164 330 152 0 -7 5 -4 11 6 6 9 14 15 20 12 5 -4 9 -1 9 4 0 6 9 11 19 11
11 0 22 6 24 13 4 9 7 9 14 0 9 -12 33 -3 36 13 1 5 10 9 20 8 9 0 17 6 17 13
0 10 7 12 20 8 11 -4 20 -2 20 4 0 6 7 11 16 11 9 0 23 8 30 18 12 15 15 15
24 2 8 -13 10 -12 10 4 0 13 5 17 20 13 13 -3 20 0 20 9 0 8 7 14 15 14 8 0
23 4 33 9 33 18 90 41 100 41 6 0 27 9 49 19 33 17 160 66 263 101 19 7 83 29
143 50 59 21 107 33 107 27 0 -6 6 -2 14 8 8 12 19 16 31 11 11 -4 22 0 31 11
12 16 15 16 24 3 9 -13 12 -13 21 3 7 12 17 15 36 11 18 -5 24 -3 19 5 -5 7 2
11 19 11 15 0 33 7 41 15 10 9 24 13 40 9 14 -4 24 -2 24 5 0 6 11 11 25 11
14 0 25 5 25 10 0 7 13 8 35 4 29 -5 35 -3 35 11 0 13 6 15 29 10 20 -4 30 -2
34 8 3 8 18 17 34 20 15 2 66 15 111 27 46 12 92 20 103 17 10 -3 17 -1 14 4
-3 4 7 11 22 15 15 3 39 9 53 14 21 8 73 18 130 25 8 1 22 5 30 8 31 11 76 20
117 21 22 0 39 4 37 8 -2 4 4 9 13 12 28 8 136 21 156 18 9 -1 17 2 17 7 0 10
75 23 145 25 28 0 53 5 56 9 3 5 30 9 60 10 30 1 57 6 60 10 3 4 29 9 57 10
29 1 52 6 52 10 0 5 24 8 53 7 86 -3 107 -1 107 11 0 6 -7 9 -15 5 -8 -3 -15
-1 -15 4 0 12 -118 11 -175 -1z"/>
<path d="M12373 39362 c-14 -2 -23 -10 -23 -22 0 -10 -6 -20 -12 -23 -7 -2 -9
-8 -5 -13 4 -5 13 -2 18 6 8 11 12 12 16 3 3 -8 25 -13 59 -13 30 0 54 -4 54
-10 0 -17 90 -12 108 7 12 12 13 18 4 21 -6 2 -12 15 -12 28 0 23 -2 24 -80
24 -47 0 -80 -4 -80 -10 0 -5 5 -10 10 -10 6 0 10 -7 10 -15 0 -10 -11 -15
-35 -15 -39 0 -43 7 -18 26 22 15 16 21 -14 16z"/>
</g>
</svg>
